<svg xmlns="http://www.w3.org/2000/svg" width="110.368" height="110.366" viewBox="0 0 110.368 110.366">
  <defs>
    <linearGradient id="linear-gradient" x1="0.5" x2="0.5" y2="1" gradientUnits="objectBoundingBox">
      <stop offset="0" stop-color="#03153b"/>
      <stop offset="1" stop-color="#003775"/>
    </linearGradient>
  </defs>
  <g id="face_ID" data-name="face ID" opacity="0.5">
    <path id="Subtraction_13" data-name="Subtraction 13" d="M32.205,34.716a1.431,1.431,0,0,1-1.475-1.379V21.508A18.95,18.95,0,0,0,11.64,2.746H1.474A1.425,1.425,0,0,1,0,1.379,1.43,1.43,0,0,1,1.474,0H11.64C23.792,0,33.68,9.648,33.68,21.508V33.337A1.432,1.432,0,0,1,32.205,34.716Z" transform="translate(76.689 0.002)" fill="url(#linear-gradient)"/>
    <path id="Subtraction_12" data-name="Subtraction 12" d="M11.64,34.716H1.474a1.376,1.376,0,1,1,0-2.744H11.64A18.951,18.951,0,0,0,30.73,13.208V1.379a1.478,1.478,0,0,1,2.949,0V13.208C33.68,25.068,23.792,34.716,11.64,34.716Z" transform="translate(76.689 73.416)" fill="url(#linear-gradient)"/>
    <path id="Subtraction_10" data-name="Subtraction 10" d="M1.474,34.716A1.431,1.431,0,0,1,0,33.337V21.489C0,9.654,9.861.017,21.982.006L32.383,0a1.431,1.431,0,0,1,1.475,1.379A1.43,1.43,0,0,1,32.38,2.752l-10.4.007A18.921,18.921,0,0,0,2.953,21.489V33.337A1.434,1.434,0,0,1,1.474,34.716Z" fill="url(#linear-gradient)"/>
    <path id="Subtraction_11" data-name="Subtraction 11" d="M32.379,36.948h0l0-2.232-10.4-.006C9.862,34.7,0,25.063,0,13.227V1.379A1.43,1.43,0,0,1,1.474,0,1.433,1.433,0,0,1,2.953,1.379V13.227a18.924,18.924,0,0,0,19.03,18.732l10.4.007a1.378,1.378,0,1,1,0,2.75Z" transform="translate(0 73.418)" fill="url(#linear-gradient)"/>
    <path id="Path_27528" data-name="Path 27528" d="M8.681,11.729H8.614a2.114,2.114,0,0,1,0-4.229h.067a2.114,2.114,0,1,1,0,4.229Z" transform="translate(24.687 31.193)" fill="url(#linear-gradient)"/>
    <path id="Path_27529" data-name="Path 27529" d="M14.681,11.729h-.067a2.114,2.114,0,1,1,0-4.229h.067a2.114,2.114,0,0,1,0,4.229Z" transform="translate(58.648 31.193)" fill="url(#linear-gradient)"/>
    <path id="Path_27532" data-name="Path 27532" d="M25.919,23.034A24.451,24.451,0,0,1,16.4,21.114a24.451,24.451,0,0,1-8.035-5.458,1.269,1.269,0,0,1,1.812-1.776A22.172,22.172,0,0,0,25.919,20.5a22.172,22.172,0,0,0,15.744-6.616,1.269,1.269,0,1,1,1.812,1.776,24.451,24.451,0,0,1-8.035,5.458A24.451,24.451,0,0,1,25.919,23.034Z" transform="translate(27.363 59.339)" fill="url(#linear-gradient)"/>
  </g>
</svg>
