<svg xmlns="http://www.w3.org/2000/svg" width="212" height="198" viewBox="0 0 212 198">
  <defs>
    <linearGradient id="linear-gradient" x1="0.5" x2="0.5" y2="1" gradientUnits="objectBoundingBox">
      <stop offset="0" stop-color="#65a2f9"/>
      <stop offset="1" stop-color="#3f84e5"/>
    </linearGradient>
  </defs>
  <g id="Group_3958" data-name="Group 3958" transform="translate(-0.333 -0.801)">
    <g id="Shield_Done" data-name="Shield Done" transform="translate(44.106 44.591)">
      <path id="Shield_Done-2" data-name="Shield Done" d="M61.949,144.4a5.519,5.519,0,0,1-2.544-.623l-26-13.451A61.161,61.161,0,0,1,15.744,117.2,59.558,59.558,0,0,1,.306,77.683L0,29.774A13.086,13.086,0,0,1,8.868,17.42L56.607.769A13.436,13.436,0,0,1,61.11,0a13.62,13.62,0,0,1,4.379.719L113.41,16.8a13.053,13.053,0,0,1,9.021,12.241l.305,47.945a59.517,59.517,0,0,1-14.908,39.675A60.983,60.983,0,0,1,90.34,129.974l-25.76,13.77a5.661,5.661,0,0,1-2.587.651ZM42.587,65.028A5.5,5.5,0,0,0,38.7,66.609a5.206,5.206,0,0,0,.05,7.5l13.832,13.31a5.47,5.47,0,0,0,3.81,1.529h.058A5.478,5.478,0,0,0,60.3,87.374l28.15-27.752a5.213,5.213,0,0,0-.043-7.505,5.556,5.556,0,0,0-7.712.043L56.373,76.131,46.416,66.56A5.5,5.5,0,0,0,42.587,65.028Z" transform="translate(0 0)" stroke="rgba(0,0,0,0)" stroke-width="1" fill="url(#linear-gradient)"/>
    </g>
    <ellipse id="Ellipse_530" data-name="Ellipse 530" cx="7.5" cy="8.5" rx="7.5" ry="8.5" transform="translate(197.333 30.801)" fill="url(#linear-gradient)"/>
    <ellipse id="Ellipse_531" data-name="Ellipse 531" cx="12.5" cy="12" rx="12.5" ry="12" transform="translate(0.333 0.801)" fill="url(#linear-gradient)"/>
    <ellipse id="Ellipse_532" data-name="Ellipse 532" cx="6" cy="6.5" rx="6" ry="6.5" transform="translate(0.333 161.801)" fill="url(#linear-gradient)"/>
    <ellipse id="Ellipse_533" data-name="Ellipse 533" cx="2.5" cy="2" rx="2.5" ry="2" transform="translate(187.333 194.801)" fill="url(#linear-gradient)"/>
  </g>
</svg>
