<svg xmlns="http://www.w3.org/2000/svg" width="130" height="130" viewBox="0 0 130 130">
  <g id="empty_illustration" transform="translate(0.2 0.2)">
    <rect id="Rectangle" width="130" height="130" transform="translate(-0.2 -0.2)" fill="#fff" opacity="0"/>
    <g id="Illustration" transform="translate(11.54 8.877)">
      <ellipse id="oval" cx="53.26" cy="4.438" rx="53.26" ry="4.438" transform="translate(0 102.97)" fill="#f3f3f3"/>
      <g id="List" transform="translate(8.877 0)">
        <path id="Path" d="M5.911,6.5A6,6,0,0,0,4.387,1.909,5.8,5.8,0,0,0,0,0H55.537a5.8,5.8,0,0,1,4.387,1.908A6,6,0,0,1,61.448,6.5Z" transform="translate(25.404)" fill="#e9edf2" stroke="#e9edf2" stroke-linejoin="round" stroke-miterlimit="10" stroke-width="1"/>
        <path id="Path-2" data-name="Path" d="M19.475,0a7.077,7.077,0,0,0-6.9,6.5L6.89,82.264A7.073,7.073,0,0,1,0,88.766H55.537a7.077,7.077,0,0,0,6.895-6.5L68.122,6.5A7.073,7.073,0,0,1,75.012,0Z" transform="translate(5.943 0.001)" fill="#fff" stroke="#e9edf2" stroke-miterlimit="10" stroke-width="1"/>
        <path id="Path-3" data-name="Path" d="M55.563,0a6,6,0,0,0,1.525,4.593A5.8,5.8,0,0,0,61.474,6.5H5.938A5.8,5.8,0,0,1,1.551,4.593,6,6,0,0,1,.027,0Z" transform="translate(0 82.265)" fill="#e9edf2"/>
        <path id="Path-4" data-name="Path" d="M3.365,5.006C3.577,2.237,2.72,0,0,0H42.763c2.72,0,4.768,2.529,3.37,5.006Z" transform="translate(19.69 75.763)" fill="#f3f3f3"/>
        <path id="Path-5" data-name="Path" d="M55.537,6.516A7.073,7.073,0,0,1,62.427,0H6.89A7.073,7.073,0,0,0,0,6.5Z" transform="translate(0.027 75.748)" fill="#e9edf2"/>
        <rect id="Rectangle-2" data-name="Rectangle" width="43.927" height="3.825" rx="1.912" transform="translate(19.392 65.071)" fill="#e9edf2"/>
        <rect id="Rectangle-3" data-name="Rectangle" width="43.927" height="3.825" rx="1.912" transform="translate(20.02 56.784)" fill="#e9edf2"/>
        <rect id="Rectangle-4" data-name="Rectangle" width="43.927" height="3.825" rx="1.912" transform="translate(20.647 48.498)" fill="#e9edf2"/>
        <rect id="Rectangle-5" data-name="Rectangle" width="43.927" height="3.825" rx="1.912" transform="translate(21.275 40.211)" fill="#e9edf2"/>
        <rect id="Rectangle-6" data-name="Rectangle" width="43.927" height="3.825" rx="1.912" transform="translate(21.902 31.924)" fill="#e9edf2"/>
        <rect id="Rectangle-7" data-name="Rectangle" width="43.927" height="3.825" rx="1.912" transform="translate(22.53 23.637)" fill="#e9edf2"/>
        <rect id="Rectangle-8" data-name="Rectangle" width="43.927" height="3.825" rx="1.912" transform="translate(23.157 15.35)" fill="#e9edf2"/>
      </g>
    </g>
  </g>
</svg>
