<svg id="Group_3917" data-name="Group 3917" xmlns="http://www.w3.org/2000/svg" xmlns:xlink="http://www.w3.org/1999/xlink" width="172" height="162" viewBox="0 0 172 162">
  <defs>
    <linearGradient id="linear-gradient" x1="0.5" x2="0.5" y2="1" gradientUnits="objectBoundingBox">
      <stop offset="0" stop-color="#f68e99"/>
      <stop offset="1" stop-color="#ed5565"/>
    </linearGradient>
  </defs>
  <circle id="Ellipse_529" data-name="Ellipse 529" cx="67" cy="67" r="67" transform="translate(18 26)" fill="url(#linear-gradient)"/>
  <circle id="Ellipse_530" data-name="Ellipse 530" cx="6.5" cy="6.5" r="6.5" transform="translate(159 26)" fill="url(#linear-gradient)"/>
  <ellipse id="Ellipse_531" data-name="Ellipse 531" cx="10.5" cy="10" rx="10.5" ry="10" fill="url(#linear-gradient)"/>
  <ellipse id="Ellipse_532" data-name="Ellipse 532" cx="5" cy="5.5" rx="5" ry="5.5" transform="translate(0 131)" fill="url(#linear-gradient)"/>
  <ellipse id="Ellipse_533" data-name="Ellipse 533" cx="2.5" cy="2" rx="2.5" ry="2" transform="translate(151 158)" fill="url(#linear-gradient)"/>
  <circle id="Ellipse_534" data-name="Ellipse 534" cx="2.5" cy="2.5" r="2.5" transform="translate(120 118)" fill="#fff"/>
  <circle id="Ellipse_535" data-name="Ellipse 535" cx="4" cy="4" r="4" transform="translate(42 72)" fill="#fff"/>
  <circle id="Ellipse_536" data-name="Ellipse 536" cx="1.5" cy="1.5" r="1.5" transform="translate(105 53)" fill="#fff"/>
  <circle id="Ellipse_537" data-name="Ellipse 537" cx="2" cy="2" r="2" transform="translate(60 121)" fill="#fff"/>
  <circle id="Ellipse_538" data-name="Ellipse 538" cx="1" cy="1" r="1" transform="translate(71 41)" fill="#fff"/>
  <path id="Path" d="M30.754,24.739A4.284,4.284,0,0,1,27.72,32.03a4.027,4.027,0,0,1-2.985-1.277L16.025,22.1l-8.71,8.656A4.266,4.266,0,0,1,4.282,32.03a4.351,4.351,0,0,1-3.034-1.277,4.306,4.306,0,0,1,0-6.063l8.71-8.661L1.248,7.314A4.289,4.289,0,1,1,7.315,1.251l8.71,8.7,8.661-8.7a4.289,4.289,0,0,1,6.068,6.063l-8.71,8.715Z" transform="translate(68.992 76.971)" fill="#fff"/>
</svg>
