<svg xmlns="http://www.w3.org/2000/svg" width="26" height="26" viewBox="0 0 26 26">
  <path id="Close_Square" data-name="Close Square" d="M18.642,26H7.371C2.962,26,0,22.913,0,18.319V7.7C0,3.093,2.962,0,7.371,0H18.642C23.043,0,26,3.093,26,7.7V18.319C26,22.913,23.043,26,18.642,26ZM13,14.6h0l2.313,2.3a1.059,1.059,0,0,0,.793.339,1.135,1.135,0,0,0,.806-.339,1.129,1.129,0,0,0,0-1.6L14.6,12.988l2.314-2.315a1.138,1.138,0,0,0-.8-1.943,1.157,1.157,0,0,0-.811.333L13,11.375,10.686,9.063a1.157,1.157,0,0,0-.811-.333,1.139,1.139,0,0,0-.8,1.943l2.313,2.315-2.313,2.3a1.144,1.144,0,0,0,.8,1.949,1.135,1.135,0,0,0,.806-.339L13,14.6Z" fill="#ed5565"/>
</svg>
