<svg xmlns="http://www.w3.org/2000/svg" width="20" height="19" viewBox="0 0 20 19">
  <path id="Download" d="M9.23,4.791V.782a.769.769,0,0,1,1.533-.1l.007.1V4.791h4.78A4.527,4.527,0,0,1,20,9.17l0,.216v5.039A4.53,4.53,0,0,1,15.768,19l-.208,0H4.44A4.511,4.511,0,0,1,0,14.621L0,14.4V9.376A4.532,4.532,0,0,1,4.222,4.8l.208-.005h4.8v6.4L7.63,9.541a.755.755,0,0,0-1.09,0,.835.835,0,0,0-.08,1.027l.08.1,2.91,3.015a.746.746,0,0,0,1.015.071l.075-.071,2.91-3.015a.816.816,0,0,0,0-1.126.755.755,0,0,0-1-.077l-.086.077-1.59,1.652v-6.4Z" fill="#3f84e5"/>
</svg>
