<svg xmlns="http://www.w3.org/2000/svg" xmlns:xlink="http://www.w3.org/1999/xlink" width="76.512" height="88.278" viewBox="0 0 76.512 88.278">
  <defs>
    <linearGradient id="linear-gradient" x1="0.5" x2="0.5" y2="1" gradientUnits="objectBoundingBox">
      <stop offset="0" stop-color="#03153b"/>
      <stop offset="1" stop-color="#003775"/>
    </linearGradient>
  </defs>
  <g id="touch_id" data-name="touch id" transform="translate(-149.244 -199.22)" opacity="0.5">
    <path id="Path_27531" data-name="Path 27531" d="M110.961,26.9a1.922,1.922,0,0,1-.978-.265c-8.162-4.37-15.219-6.224-23.679-6.224a47.232,47.232,0,0,0-23.681,6.224,2.111,2.111,0,0,1-2.891-.89,2.281,2.281,0,0,1,.852-3A51.829,51.829,0,0,1,86.3,16c9.054,0,16.962,2.075,25.636,6.709a2.207,2.207,0,0,1,.892,2.957A2.078,2.078,0,0,1,110.961,26.9ZM50.124,50.074a2.157,2.157,0,0,1-1.232-.4,2.255,2.255,0,0,1-.511-3.09A44.481,44.481,0,0,1,64.324,32.154a47.48,47.48,0,0,1,43.83-.044A44.651,44.651,0,0,1,124.1,46.455a2.26,2.26,0,0,1-.511,3.09,2.071,2.071,0,0,1-2.976-.53A40.375,40.375,0,0,0,106.2,36.038a43.324,43.324,0,0,0-39.962.044A40.858,40.858,0,0,0,51.783,49.14a1.839,1.839,0,0,1-1.659.934Zm26.57,53.283a1.961,1.961,0,0,1-1.488-.662,44.615,44.615,0,0,1-8.545-11.66A40.281,40.281,0,0,1,62.2,71.879a24.068,24.068,0,0,1,48.134,0,2.126,2.126,0,1,1-4.25,0,19.821,19.821,0,0,0-39.631,0A35.645,35.645,0,0,0,70.4,88.873a41.788,41.788,0,0,0,7.866,10.682,2.33,2.33,0,0,1,0,3.127,2.288,2.288,0,0,1-1.574.677Zm30.484-8.166A22.285,22.285,0,0,1,94,91.264,23.743,23.743,0,0,1,83.883,71.887a2.128,2.128,0,1,1,4.252,0A19.178,19.178,0,0,0,96.382,87.6a18.135,18.135,0,0,0,10.8,3.127,27.11,27.11,0,0,0,4.414-.441,2.126,2.126,0,0,1,2.464,1.81,2.192,2.192,0,0,1-1.742,2.56,28.007,28.007,0,0,1-5.14.53Zm-8.546,9.085a2.391,2.391,0,0,1-.552-.088,33.342,33.342,0,0,1-25.042-32.31,13.094,13.094,0,0,1,26.187,0,8.847,8.847,0,0,0,17.685,0c0-16.64-13.817-30.147-30.822-30.147a30.926,30.926,0,0,0-28.1,17.788A29.36,29.36,0,0,0,55.48,71.879a45.357,45.357,0,0,0,2.847,15.934,2.177,2.177,0,0,1-1.232,2.825,2.086,2.086,0,0,1-2.72-1.287,50.832,50.832,0,0,1-3.1-17.472,34.222,34.222,0,0,1,2.891-14.3,35.155,35.155,0,0,1,31.927-20.3c19.344,0,35.074,15.493,35.074,34.561a13.1,13.1,0,0,1-26.189,0,8.846,8.846,0,0,0-17.683-.007,28.356,28.356,0,0,0,7.951,19.907,28.758,28.758,0,0,0,13.9,8.166,2.2,2.2,0,0,1,1.488,2.692A2.1,2.1,0,0,1,98.631,104.277Z" transform="translate(101.262 183.221)" fill="url(#linear-gradient)"/>
  </g>
</svg>
