<svg xmlns="http://www.w3.org/2000/svg" xmlns:xlink="http://www.w3.org/1999/xlink" width="18.001" height="16" viewBox="0 0 18.001 16">
  <defs>
    <linearGradient id="linear-gradient" x1="0.5" x2="0.5" y2="1" gradientUnits="objectBoundingBox">
      <stop offset="0" stop-color="#455b60"/>
      <stop offset="1" stop-color="#0d1b1e"/>
    </linearGradient>
  </defs>
  <g id="Swap" transform="translate(-2 -1.375)">
    <path id="Swap-2" data-name="Swap" d="M14.454,17.106a4.4,4.4,0,0,1-.434-.379,16.981,16.981,0,0,1-3.111-4.458,3.8,3.8,0,0,1-.32-1.038v-.045a1.4,1.4,0,0,1,.779-1.239,6.679,6.679,0,0,1,1.04-.269A21.644,21.644,0,0,1,15.3,9.512a18.694,18.694,0,0,1,2.985.189,7.641,7.641,0,0,1,.835.2,1.477,1.477,0,0,1,.709.625,1.522,1.522,0,0,1,.171.7,3.623,3.623,0,0,1-.264.927,17.065,17.065,0,0,1-3.155,4.558c-.16.156-.355.324-.4.368a1.466,1.466,0,0,1-.891.291A1.4,1.4,0,0,1,14.454,17.106ZM3,17.375a.75.75,0,0,1-.607-1.191l3.133-4.309H3a.75.75,0,1,1,0-1.5H7a.75.75,0,0,1,.607,1.192L4.473,15.876H7a.75.75,0,1,1,0,1.5ZM6.541,8.87,6.2,7.876H3.8L3.46,8.87a.75.75,0,0,1-1.418-.49l2.25-6.5a.75.75,0,0,1,1.418,0l2.25,6.5a.75.75,0,1,1-1.418.49ZM4.324,6.376H5.678L5,4.419Zm10.038.569L14.1,2.537a1.191,1.191,0,0,1,2.381,0l-.257,4.407a.934.934,0,0,1-1.867,0Z" transform="translate(0 0)" fill="url(#linear-gradient)"/>
  </g>
</svg>
