<svg id="remove_illustration" xmlns="http://www.w3.org/2000/svg" xmlns:xlink="http://www.w3.org/1999/xlink" width="240" height="180" viewBox="0 0 240 180">
  <defs>
    <linearGradient id="linear-gradient" x1="0.5" x2="0.5" y2="1" gradientUnits="objectBoundingBox">
      <stop offset="0" stop-color="#65a2f9"/>
      <stop offset="1" stop-color="#3f84e5"/>
    </linearGradient>
    <linearGradient id="linear-gradient-3" x1="0.5" x2="0.5" y2="1" gradientUnits="objectBoundingBox">
      <stop offset="0" stop-color="#03153b"/>
      <stop offset="1" stop-color="#003775"/>
    </linearGradient>
    <linearGradient id="linear-gradient-4" x1="0.5" x2="0.5" y2="1" gradientUnits="objectBoundingBox">
      <stop offset="0" stop-color="#455b60"/>
      <stop offset="1" stop-color="#0d1b1e"/>
    </linearGradient>
    <linearGradient id="linear-gradient-8" x1="0.5" x2="0.5" y2="1" gradientUnits="objectBoundingBox">
      <stop offset="0" stop-color="#fff"/>
      <stop offset="1" stop-color="#cfd9ff"/>
    </linearGradient>
  </defs>
  <g id="freepik--background-complete--inject-34" opacity="0.5">
    <rect id="Rectangle" width="240" height="0.121" transform="translate(0 158.181)" fill="#e9edf2"/>
    <rect id="Rectangle-2" data-name="Rectangle" width="15.898" height="0.121" transform="translate(25.181 162.781)" fill="#e9edf2"/>
    <rect id="Rectangle-3" data-name="Rectangle" width="20.414" height="0.121" transform="translate(82.147 161.471)" fill="#e9edf2"/>
    <rect id="Rectangle-4" data-name="Rectangle" width="9.211" height="0.121" transform="translate(44.866 164.477)" fill="#e9edf2"/>
    <rect id="Rectangle-5" data-name="Rectangle" width="7.31" height="0.121" transform="translate(208.642 166.457)" fill="#e9edf2"/>
    <rect id="Rectangle-6" data-name="Rectangle" width="16.459" height="0.121" transform="translate(187.906 166.457)" fill="#e9edf2"/>
    <rect id="Rectangle-7" data-name="Rectangle" width="11.438" height="0.121" transform="translate(147.84 162.979)" fill="#e9edf2"/>
    <path id="Shape" d="M2.74,136.633A2.749,2.749,0,0,1,0,133.874V2.734A2.75,2.75,0,0,1,2.74,0H95.419A2.75,2.75,0,0,1,98.16,2.759V133.874a2.75,2.75,0,0,1-2.741,2.758Z" transform="translate(18.341)" fill="#e9edf2"/>
    <path id="Shape-2" data-name="Shape" d="M2.74,136.633A2.754,2.754,0,0,1,0,133.874V2.734A2.755,2.755,0,0,1,2.74,0H95.429A2.75,2.75,0,0,1,98.16,2.734v131.14a2.749,2.749,0,0,1-2.731,2.758Z" transform="translate(122.16)" fill="#e9edf2"/>
    <rect id="Rectangle-8" data-name="Rectangle" width="51.778" height="52.257" transform="translate(199.378 68.302) rotate(180)" fill="#dee3e8"/>
    <rect id="Rectangle-9" data-name="Rectangle" width="0.893" height="52.257" transform="translate(146.707 16.05)" fill="#e0e0e0"/>
    <rect id="Rectangle-10" data-name="Rectangle" width="42.634" height="45.657" transform="translate(194.808 65.002) rotate(180)" fill="#fafafa"/>
    <path id="Path" d="M8.914,25.766h13.5a4.342,4.342,0,0,0,4.373-5.315L24.163,5.315A6.589,6.589,0,0,0,17.923,0H4.455A4.342,4.342,0,0,0,.082,5.315L2.707,20.451A6.584,6.584,0,0,0,8.914,25.766Z" transform="translate(160.046 29.312)" fill="#dee3e8"/>
    <rect id="Rectangle-11" data-name="Rectangle" width="11.52" height="71.529" transform="translate(38.866 84.173)" fill="#dee3e8"/>
    <rect id="Rectangle-12" data-name="Rectangle" width="60.893" height="2.469" transform="translate(40.042 155.708)" fill="#dee3e8"/>
    <rect id="Rectangle-13" data-name="Rectangle" width="51.562" height="71.529" transform="translate(101.947 155.708) rotate(180)" fill="#f5f5f5"/>
    <rect id="Rectangle-14" data-name="Rectangle" width="47.414" height="12.774" transform="translate(99.874 134.193) rotate(180)" fill="#dee3e8"/>
    <rect id="Rectangle-15" data-name="Rectangle" width="47.414" height="12.774" transform="translate(99.874 150.91) rotate(180)" fill="#dee3e8"/>
    <rect id="Rectangle-16" data-name="Rectangle" width="37.325" height="1.754" rx="0.877" transform="translate(57.504 120.636)" fill="#f5f5f5"/>
    <rect id="Rectangle-17" data-name="Rectangle" width="37.325" height="1.754" rx="0.877" transform="translate(57.504 137.358)" fill="#f5f5f5"/>
    <rect id="Rectangle-18" data-name="Rectangle" width="47.414" height="12.774" transform="translate(99.874 100.89) rotate(180)" fill="#dee3e8"/>
    <rect id="Rectangle-19" data-name="Rectangle" width="47.414" height="12.774" transform="translate(99.874 117.481) rotate(180)" fill="#dee3e8"/>
    <rect id="Rectangle-20" data-name="Rectangle" width="37.325" height="1.754" rx="0.877" transform="translate(57.504 87.338)" fill="#f5f5f5"/>
    <rect id="Rectangle-21" data-name="Rectangle" width="37.325" height="1.754" rx="0.877" transform="translate(57.504 103.919)" fill="#f5f5f5"/>
    <rect id="Rectangle-22" data-name="Rectangle" width="64.661" height="57.137" transform="translate(35.419 12.108)" fill="#e6e6e6"/>
    <path id="Path-2" data-name="Path" d="M76.416,0H.638A.636.636,0,0,0,.185.19.645.645,0,0,0,0,.647H0a.641.641,0,0,0,.638.643H76.416a.645.645,0,0,0,.643-.643h0A.645.645,0,0,0,76.416,0Z" transform="translate(30.595 9.885)" fill="#e6e6e6"/>
    <rect id="Rectangle-23" data-name="Rectangle" width="66.125" height="57.137" transform="translate(36.701 12.108)" fill="#dee3e8"/>
    <path id="Path-3" data-name="Path" d="M64.661,0H0V1.831H66.552L64.661,0Z" transform="translate(35.419 69.244)" fill="#e6e6e6"/>
    <path id="Path-4" data-name="Path" d="M66.12,0H0L1.886,1.831H68.011L66.12,0Z" transform="translate(41.275 69.244)" fill="#dee3e8"/>
    <rect id="Rectangle-24" data-name="Rectangle" width="49.406" height="58.44" transform="translate(98.986 15.973) rotate(90)" fill="#fafafa"/>
    <path id="Path-5" data-name="Path" d="M0,49.406,22.541,0H33.187L10.642,49.406Z" transform="translate(53.813 15.973)" fill="#fff"/>
    <path id="Path-6" data-name="Path" d="M0,49.406,22.546,0h4.147L4.152,49.406Z" transform="translate(66.739 15.973)" fill="#fff"/>
    <path id="Rectangle-25" data-name="Rectangle" d="M0,.255H49.406v.49H0Z" transform="translate(99.241 15.973) rotate(90)" fill="#e6e6e6"/>
    <g id="Group" transform="translate(33.979 8.73)" opacity="0.4">
      <rect id="Rectangle-26" data-name="Rectangle" width="6.61" height="47.15" transform="translate(0)" fill="#dee3e8"/>
      <rect id="Rectangle-27" data-name="Rectangle" width="5.15" height="47.15" transform="translate(4.037)" fill="#e6e6e6"/>
      <rect id="Rectangle-28" data-name="Rectangle" width="6.61" height="47.15" transform="translate(6.61)" fill="#dee3e8"/>
      <rect id="Rectangle-29" data-name="Rectangle" width="5.15" height="47.15" transform="translate(10.646)" fill="#e6e6e6"/>
      <rect id="Rectangle-30" data-name="Rectangle" width="6.61" height="47.15" transform="translate(13.219)" fill="#dee3e8"/>
    </g>
    <g id="Group-2" data-name="Group" transform="translate(92.717 8.73)" opacity="0.4">
      <rect id="Rectangle-31" data-name="Rectangle" width="3.811" height="47.15" fill="#dee3e8"/>
      <rect id="Rectangle-32" data-name="Rectangle" width="2.966" height="47.15" transform="translate(2.323)" fill="#e6e6e6"/>
      <rect id="Rectangle-33" data-name="Rectangle" width="3.811" height="47.15" transform="translate(3.806)" fill="#dee3e8"/>
      <rect id="Rectangle-34" data-name="Rectangle" width="2.966" height="47.15" transform="translate(6.134)" fill="#e6e6e6"/>
      <rect id="Rectangle-35" data-name="Rectangle" width="3.811" height="47.15" transform="translate(7.618)" fill="#dee3e8"/>
    </g>
    <path id="Path-7" data-name="Path" d="M.012,3.259A3.523,3.523,0,1,0,3.813.012a3.539,3.539,0,0,0-3.8,3.247Z" transform="translate(171.276 100.236)" fill="#e0e0e0"/>
    <ellipse id="Oval" cx="3.528" cy="3.551" rx="3.528" ry="3.551" transform="matrix(0.989, -0.146, 0.146, 0.989, 176.563, 102.63)" fill="#e0e0e0"/>
    <path id="Path-8" data-name="Path" d="M.012,3.259A3.523,3.523,0,1,0,3.813.012,3.5,3.5,0,0,0,1.243.841,3.549,3.549,0,0,0,.012,3.259Z" transform="translate(183.214 102.815)" fill="#e0e0e0"/>
    <path id="Path-9" data-name="Path" d="M.012,3.259A3.523,3.523,0,1,0,3.813.012,3.539,3.539,0,0,0,.012,3.259Z" transform="translate(164.724 102.096)" fill="#e0e0e0"/>
    <ellipse id="Oval-2" data-name="Oval" cx="3.528" cy="3.551" rx="3.528" ry="3.551" transform="matrix(0.989, -0.146, 0.146, 0.989, 187.824, 102.627)" fill="#e0e0e0"/>
    <path id="Oval-3" data-name="Oval" d="M3.527,7.083A3.567,3.567,0,0,0,7.076,3.53,3.512,3.512,0,0,0,3.549,0,3.567,3.567,0,0,0,0,3.553,3.512,3.512,0,0,0,3.527,7.083Z" transform="translate(158.506 102.25) rotate(-40.539)" fill="#e0e0e0"/>
    <path id="Path-10" data-name="Path" d="M.012,3.259A3.523,3.523,0,1,0,3.813.012,3.539,3.539,0,0,0,.012,3.259Z" transform="translate(154.99 101.289)" fill="#e0e0e0"/>
    <path id="Path-11" data-name="Path" d="M0,0S.6,14.528,23.8,14.528,47.6,0,47.6,0Z" transform="translate(150.974 105.504)" fill="#dee3e8"/>
    <rect id="Rectangle-36" data-name="Rectangle" width="4.411" height="38.144" transform="translate(207.394 120.032)" fill="#e6e6e6"/>
    <rect id="Rectangle-37" data-name="Rectangle" width="2.597" height="38.144" transform="translate(210.384 120.032)" fill="#dee3e8"/>
    <rect id="Rectangle-38" data-name="Rectangle" width="4.411" height="38.144" transform="translate(188.626 120.032)" fill="#e6e6e6"/>
    <rect id="Rectangle-39" data-name="Rectangle" width="2.597" height="38.144" transform="translate(191.266 120.032)" fill="#dee3e8"/>
    <rect id="Rectangle-40" data-name="Rectangle" width="62.621" height="4.624" transform="translate(213.787 124.661) rotate(180)" fill="#dee3e8"/>
    <rect id="Rectangle-41" data-name="Rectangle" width="4.411" height="38.144" transform="translate(127.618 120.032)" fill="#e6e6e6"/>
    <rect id="Rectangle-42" data-name="Rectangle" width="2.597" height="38.144" transform="translate(130.258 120.032)" fill="#dee3e8"/>
    <rect id="Rectangle-43" data-name="Rectangle" width="22.45" height="4.624" transform="translate(149.28 124.661) rotate(180)" fill="#e6e6e6"/>
    <rect id="Rectangle-44" data-name="Rectangle" width="4.411" height="38.144" transform="translate(146.381 120.032)" fill="#e6e6e6"/>
    <rect id="Rectangle-45" data-name="Rectangle" width="2.597" height="38.144" transform="translate(149.376 120.032)" fill="#dee3e8"/>
  </g>
  <g id="freepik--Shadow--inject-34" transform="translate(26.933 169.062)">
    <ellipse id="freepik--path--inject-34" cx="93.067" cy="5.469" rx="93.067" ry="5.469" transform="translate(0 0)" fill="#f5f5f5"/>
  </g>
  <g id="freepik--Trash--inject-34" transform="translate(127.493 128.371)">
    <path id="Path-12" data-name="Path" d="M41.928,39.135a4.07,4.07,0,0,1-3.384,4.025,105.066,105.066,0,0,1-35.184,0A4.065,4.065,0,0,1,0,39.135V0H41.947Z" transform="translate(1.21 2.227)" fill="url(#linear-gradient)"/>
    <path id="Path-13" data-name="Path" d="M0,0V5.493c2.525.942,10.814,1.633,20.976,1.633s18.466-.691,20.976-1.633V0Z" transform="translate(1.186 2.933)" opacity="0.3"/>
    <path id="Path-14" data-name="Path" d="M43.925,4.88c0,1.242-9.523,2.247-21.763,2.247S.4,6.121.4,4.88L0,0H44.347Z" transform="translate(0 2.242)" fill="url(#linear-gradient)"/>
    <ellipse id="Oval-4" data-name="Oval" cx="22.162" cy="2.242" rx="22.162" ry="2.242" transform="translate(0 0)" fill="#1a87dd"/>
    <ellipse id="Oval-5" data-name="Oval" cx="22.162" cy="2.242" rx="22.162" ry="2.242" transform="translate(0 0)" opacity="0.3" fill="url(#linear-gradient-3)"/>
    <path id="Path-15" data-name="Path" d="M1.627,25.713h0A1.637,1.637,0,0,1,0,24.075V1.638A1.637,1.637,0,0,1,1.627,0h0A1.642,1.642,0,0,1,3.254,1.638V24.075a1.642,1.642,0,0,1-1.627,1.638Z" transform="translate(5.184 12.895)" opacity="0.2" fill="url(#linear-gradient-4)"/>
    <path id="Path-16" data-name="Path" d="M1.627,25.713h0A1.637,1.637,0,0,1,0,24.075V1.638A1.637,1.637,0,0,1,1.627,0h0A1.642,1.642,0,0,1,3.254,1.638V24.075a1.642,1.642,0,0,1-1.627,1.638Z" transform="translate(35.89 12.895)" opacity="0.2" fill="url(#linear-gradient-4)"/>
    <path id="Path-17" data-name="Path" d="M1.627,25.713h0A1.642,1.642,0,0,1,0,24.075V1.638A1.642,1.642,0,0,1,1.627,0h0A1.637,1.637,0,0,1,3.254,1.638V24.075a1.637,1.637,0,0,1-1.627,1.638Z" transform="translate(25.651 12.895)" opacity="0.2" fill="url(#linear-gradient-4)"/>
    <path id="Path-18" data-name="Path" d="M1.627,25.713h0A1.642,1.642,0,0,1,0,24.075V1.638A1.642,1.642,0,0,1,1.627,0h0A1.637,1.637,0,0,1,3.254,1.638V24.075a1.637,1.637,0,0,1-1.627,1.638Z" transform="translate(15.418 12.895)" opacity="0.2" fill="url(#linear-gradient-4)"/>
  </g>
  <g id="freepik--Character--inject-34" transform="translate(60.397 35.416)">
    <path id="Path-19" data-name="Path" d="M4.454,2.242A2.242,2.242,0,0,1,3.08,4.313,2.217,2.217,0,0,1,.652,3.827,2.253,2.253,0,0,1,.17,1.384a2.225,2.225,0,0,1,4.285.858Z" transform="translate(27.731 3.004)" fill="#2c373b"/>
    <path id="Path-20" data-name="Path" d="M.391,3.551a.115.115,0,0,1-.106-.063A2.373,2.373,0,0,1,.344,1.129a2.337,2.337,0,0,1,4.059.1.126.126,0,0,1-.048.164.12.12,0,0,1-.163-.048A2.1,2.1,0,0,0,1.339.5,2.125,2.125,0,0,0,.5,3.372a.121.121,0,0,1-.048.164.129.129,0,0,1-.058.014Z" transform="translate(27.777 2.018)" fill="#2c373b"/>
    <path id="Path-21" data-name="Path" d="M2.338,4.693a2.346,2.346,0,0,1-2.089-1.3A2.375,2.375,0,0,1,.461.925,2.34,2.34,0,0,1,2,0a.115.115,0,0,1,.089.021A.116.116,0,0,1,2.136.1a.121.121,0,0,1-.1.135,2.117,2.117,0,0,0,.61,4.189.122.122,0,0,1,.038.242A2.771,2.771,0,0,1,2.338,4.693Z" transform="translate(23.666 10.795)" fill="#2c373b"/>
    <path id="Path-22" data-name="Path" d="M1.323,4.358A2.308,2.308,0,0,1,.056,3.976a.126.126,0,0,1-.038-.169.124.124,0,0,1,.168-.034A2.1,2.1,0,0,0,3.094,3.15,2.125,2.125,0,0,0,2.475.222.126.126,0,0,1,2.437.053.124.124,0,0,1,2.6.019,2.372,2.372,0,0,1,3.3,3.28,2.314,2.314,0,0,1,1.818,4.3a2.457,2.457,0,0,1-.494.053Z" transform="translate(36.781 14.783)" fill="#2c373b"/>
    <ellipse id="Oval-6" data-name="Oval" cx="3.149" cy="3.169" rx="3.149" ry="3.169" transform="translate(25.562 5.898)" fill="#2c373b"/>
    <path id="Oval-7" data-name="Oval" d="M4.176,8.379a4.223,4.223,0,0,0,4.2-4.2A4.157,4.157,0,0,0,4.2,0,4.223,4.223,0,0,0,0,4.2,4.157,4.157,0,0,0,4.176,8.379Z" transform="translate(22.788 13.333) rotate(-45)" fill="#2c373b"/>
    <ellipse id="Oval-8" data-name="Oval" cx="4.618" cy="4.648" rx="4.618" ry="4.648" transform="translate(24.535 14.029)" fill="#2c373b"/>
    <ellipse id="Oval-9" data-name="Oval" cx="4.646" cy="4.619" rx="4.646" ry="4.619" transform="translate(28.209 22.453) rotate(-76.72)" fill="#2c373b"/>
    <path id="Path-23" data-name="Path" d="M4.341.116c0,.377,0,.855.034,1.29s.034.9.062,1.348c.062.9.125,1.807.221,2.71q.259,2.72.725,5.416c.082.444.154.9.245,1.343l.211,1.1c.053.174,0,.14-.067.135s0,.087.283.087a6.009,6.009,0,0,0,2.083-.6c.384-.174.778-.362,1.171-.565s.792-.435,1.152-.638l1.4,1.628a13.535,13.535,0,0,1-1.066,1.1,12.341,12.341,0,0,1-1.171.99,10.6,10.6,0,0,1-1.358.874,6.478,6.478,0,0,1-1.718.647,4.35,4.35,0,0,1-1.128.1,3.648,3.648,0,0,1-1.334-.338,3.526,3.526,0,0,1-1.166-.889,4.261,4.261,0,0,1-.672-1.087,6.139,6.139,0,0,1-.317-.932l-.187-.705c-.134-.483-.245-.942-.36-1.416A54.175,54.175,0,0,1,.347,5.943C.227,4.976.131,4.01.074,3.02.045,2.537.021,2.053.006,1.541S.006.575.006,0Z" transform="translate(44.746 28.465)" fill="#feba99"/>
    <path id="Path-24" data-name="Path" d="M4.946.65c4.094,3.155,3.931,9.1,3.931,9.1L1.552,11.516S-.694,5.534.218,3.346C1.168,1.065,2.642-1.128,4.946.65Z" transform="translate(41.813 22.723)" fill="#1a87dd"/>
    <path id="Path-25" data-name="Path" d="M4.946.65c4.094,3.155,3.931,9.1,3.931,9.1L1.552,11.516S-.694,5.534.218,3.346C1.168,1.065,2.642-1.128,4.946.65Z" transform="translate(41.813 22.723)" fill="#fff" opacity="0.7"/>
    <path id="Path-26" data-name="Path" d="M.187,2.049,1.4,0,4.43,3.266a5.063,5.063,0,0,1-4.43.4Z" transform="translate(54.746 38.708)" fill="#feba99"/>
    <path id="Path-27" data-name="Path" d="M1.493,0,5.386,2.309,3.034,4.247,0,.981,1.493,0Z" transform="translate(56.143 37.727)" fill="#feba99"/>
    <path id="Path-28" data-name="Path" d="M0,9.871l4.186.406L6.787.406,2.6,0,0,9.871Z" transform="translate(23.839 125.679)" fill="#feba99"/>
    <path id="Path-29" data-name="Path" d="M0,8.919,3.758,10.9,8.227,1.981,4.469,0,0,8.919Z" transform="translate(2.383 118.335)" fill="#feba99"/>
    <path id="Path-30" data-name="Path" d="M7.144,3.541,3.784.106A.33.33,0,0,0,3.343.067L.256,2.353A.694.694,0,0,0,.2,3.377c1.19,1.179,1.824,1.686,3.3,3.2.912.928,2.784,3.116,4.042,4.4s2.582.1,2.174-.546A12.468,12.468,0,0,1,7.461,4.237,1.119,1.119,0,0,0,7.144,3.541Z" transform="translate(0 123.959)" fill="#2c373b"/>
    <path id="Path-31" data-name="Path" d="M6.581,0H1.507a.418.418,0,0,0-.4.309L.024,4.325a.636.636,0,0,0,.107.561.627.627,0,0,0,.512.246h11.65c1.848,0,2.237-1.879,1.469-2.053C10.335,2.315,8.357,1.261,7.3.257A1.057,1.057,0,0,0,6.581,0Z" transform="translate(22.096 134.674)" fill="#2c373b"/>
    <path id="Path-32" data-name="Path" d="M5.635.406,4.3,5.493H0L1.445,0l4.19.406Z" transform="translate(24.986 125.683)" opacity="0.2"/>
    <path id="Path-33" data-name="Path" d="M2.3,0,6.067,1.986,3.763,6.58,0,4.595,2.3,0Z" transform="translate(4.543 118.335)" opacity="0.2"/>
    <path id="Path-34" data-name="Path" d="M22.44,2.5s1.853.817-4.358,25.553L.83,26.549c.9-7.039,1.277-11.4-.83-26.2A51.291,51.291,0,0,1,7.411.019,55.026,55.026,0,0,1,15.245.7a72.793,72.793,0,0,1,7.2,1.8Z" transform="translate(23.08 20.266)" fill="#1a87dd"/>
    <path id="Path-35" data-name="Path" d="M22.44,2.5s1.853.817-4.358,25.553L.83,26.549c.9-7.039,1.277-11.4-.83-26.2A51.291,51.291,0,0,1,7.411.019,55.026,55.026,0,0,1,15.245.7a72.793,72.793,0,0,1,7.2,1.8Z" transform="translate(23.08 20.266)" fill="#fff" opacity="0.7"/>
    <path id="Path-36" data-name="Path" d="M2.239,0H.1c-.7,1.077,2.242,4.223,5.976,7.315C6.981,4.5,8.4,4.508,8.4,4.508Z" transform="translate(28.253 20.145)" fill="#fff"/>
    <path id="Path-37" data-name="Path" d="M1.661,0S2.1.063,3.144.3a5.411,5.411,0,0,1-.96,6.121C1.382,3.527,0,3.788,0,3.788Z" transform="translate(36.659 20.904)" fill="#fff"/>
    <path id="Path-38" data-name="Path" d="M1.536,0C1.814,2.58,1.906,7.247,0,8.813a28.861,28.861,0,0,0,6.163,4.406c3-2.087,1.67-3.725,1.67-3.725-2.755-.918-2.5-3.01-1.843-4.943Z" transform="translate(30.491 11.473)" fill="#feba99"/>
    <path id="Path-39" data-name="Path" d="M.341,0,2.976,2.691a8.111,8.111,0,0,0-.365,1.377C1.555,3.822.019,2.71,0,1.57A4.494,4.494,0,0,1,.341,0Z" transform="translate(33.506 13.333)" opacity="0.2"/>
    <path id="Path-40" data-name="Path" d="M.026,0c1.766,1.575,2.285,5.411.6,8.015A35.5,35.5,0,0,1,.026,0Z" transform="translate(41.899 3.057)" fill="#2c373b"/>
    <path id="Path-41" data-name="Path" d="M.206,5.467c-.307,4.247-.523,6.039,1.3,8.489,2.746,3.686,8,3.131,9.557-.937,1.406-3.667,1.67-10-2.2-12.228A5.727,5.727,0,0,0,3.232.69,5.8,5.8,0,0,0,.206,5.467Z" transform="translate(31.284 0.59)" fill="#feba99"/>
    <path id="Path-42" data-name="Path" d="M.866,9.478c3.12-.121,4.848-4.228,4.066-5.962,3.538,1.855,8.894,3.314,8.3.928-.8-3.223-4.675-5.585-9.442-3.865C1.029,1.786-1.333,4.443.866,9.478Z" transform="translate(30.062 0)" fill="#2c373b"/>
    <path id="Path-43" data-name="Path" d="M.035,1.708A3.143,3.143,0,0,0,1.273,3.732c.883.633,1.69-.072,1.752-1.1C3.083,1.7,2.694.249,1.657.027a1.381,1.381,0,0,0-1.265.4A1.4,1.4,0,0,0,.035,1.708Z" transform="translate(29.943 7.765)" fill="#feba99"/>
    <path id="Path-44" data-name="Path" d="M17.438,1.082s3.9,25.631,1.728,42.1C17.52,55.619,6.9,82.463,6.9,82.463L0,82.275S7.123,56.257,8.6,46.039C11.117,28.539,4.8,0,4.8,0Z" transform="translate(23.723 47.235)" fill="#1a87dd"/>
    <path id="Path-45" data-name="Path" d="M17.438,1.082s3.9,25.631,1.728,42.1C17.52,55.619,6.9,82.463,6.9,82.463L0,82.275S7.123,56.257,8.6,46.039C11.117,28.539,4.8,0,4.8,0Z" transform="translate(23.723 47.235)" opacity="0.5" fill="url(#linear-gradient-8)"/>
    <path id="Path-46" data-name="Path" d="M3.682,0,0,5.841a180.339,180.339,0,0,1,2.107,20.92C7.282,17.437,4.853,4.933,3.682,0Z" transform="translate(30.751 53.569)" fill="#fff" opacity="0.1"/>
    <path id="Path-47" data-name="Path" d="M8.669,3.044,0,2.807.528,0,9.485.053,8.669,3.044Z" transform="translate(23.027 127.041)" fill="#1a87dd"/>
    <path id="Path-48" data-name="Path" d="M32.544,1.208s-2.88,28.38-9.461,43.821c-5.323,12.465-18.014,32.4-18.014,32.4L0,74.448S8.16,52.276,12.187,43.966C22.013,23.592,12.874,7.247,19.066,0Z" transform="translate(4.845 46.834)" fill="#1a87dd"/>
    <path id="Path-49" data-name="Path" d="M32.544,1.208s-2.88,28.38-9.461,43.821c-5.323,12.465-18.014,32.4-18.014,32.4L0,74.448S8.16,52.276,12.187,43.966C22.013,23.592,12.874,7.247,19.066,0Z" transform="translate(4.845 46.834)" opacity="0.5" fill="url(#linear-gradient-8)"/>
    <path id="Path-50" data-name="Path" d="M6.466,6.353,0,2.783,1.051,0,7.939,3.913,6.466,6.353Z" transform="translate(4 118.349)" fill="#1a87dd"/>
    <path id="Path-51" data-name="Path" d="M.93.11.018,1.6c-.067.111.062.251.264.266L18.373,3.439c.154,0,.293-.053.307-.15l.293-1.541c0-.106-.11-.208-.278-.222L1.223,0A.325.325,0,0,0,.93.11Z" transform="translate(22.808 45.666)" fill="#1a87dd"/>
    <path id="Path-52" data-name="Path" d="M.63,2.253.15,2.214c-.091,0-.158-.063-.149-.121l.394-2C.395.03.5-.008.587,0l.48.039c.1,0,.163.063.149.121l-.389,2A.19.19,0,0,1,.63,2.253Z" transform="translate(25.287 45.693)" fill="#2c373b"/>
    <path id="Path-53" data-name="Path" d="M.631,2.253l-.48-.039c-.1,0-.163-.063-.149-.121L.4.093c0-.058.1-.1.187-.092l.48.039c.091,0,.158.063.149.121l-.394,2C.808,2.229.7,2.262.631,2.253Z" transform="translate(39.221 46.905)" fill="#2c373b"/>
    <path id="Path-54" data-name="Path" d="M.63,2.258.15,2.214c-.091,0-.158-.063-.149-.121l.394-2c0-.058.1-.1.192-.092l.48.043c.091,0,.158.063.149.121l-.394,2C.812,2.224.726,2.262.63,2.258Z" transform="translate(32.252 46.297)" fill="#2c373b"/>
    <path id="Path-55" data-name="Path" d="M.009.568c-.048.343.1.647.317.676s.442-.222.48-.565S.705.031.484,0,.052.225.009.568Z" transform="translate(38.09 7.601)" fill="#2c373b"/>
    <path id="Path-56" data-name="Path" d="M.008.568c-.043.343.1.647.322.676s.442-.222.48-.565S.713.031.492,0,.056.225.008.568Z" transform="translate(41.941 8.123)" fill="#2c373b"/>
    <path id="Path-57" data-name="Path" d="M0,.216.854.091S.355.675,0,.216Z" transform="translate(42.323 7.913)" fill="#2c373b"/>
    <path id="Path-58" data-name="Path" d="M.322,0a9.4,9.4,0,0,0,.922,2.353A1.47,1.47,0,0,1,0,2.421Z" transform="translate(40.115 9.067)" fill="#ed893e"/>
    <path id="Path-59" data-name="Path" d="M1.591,1.439A2.8,2.8,0,0,1,.007.12.087.087,0,0,1,.046.009.086.086,0,0,1,.161.048,2.735,2.735,0,0,0,2.23,1.42a.082.082,0,0,1,0,.164A2.912,2.912,0,0,1,1.591,1.439Z" transform="translate(36.527 11.073)" fill="#2c373b"/>
    <path id="Path-60" data-name="Path" d="M.122.789A.187.187,0,0,1,.05.736.165.165,0,0,1,.05.5,1.94,1.94,0,0,1,1.807.055a.163.163,0,0,1,.1.08.165.165,0,0,1,.012.127.168.168,0,0,1-.206.116A1.624,1.624,0,0,0,.271.755.181.181,0,0,1,.122.789Z" transform="translate(36.225 5.393)" fill="#2c373b"/>
    <path id="Path-61" data-name="Path" d="M1.639.965A.2.2,0,0,1,1.572.921,1.646,1.646,0,0,0,.194.341.158.158,0,0,1,.067.315.16.16,0,0,1,0,.2.169.169,0,0,1,.141.008,1.966,1.966,0,0,1,1.816.694a.17.17,0,0,1,.012.2.167.167,0,0,1-.189.069Z" transform="translate(41.928 6.247)" fill="#2c373b"/>
    <path id="Path-62" data-name="Path" d="M2.986,5.412A7.723,7.723,0,0,1,16.094,2.558a7.832,7.832,0,0,1,1.637,7.618l-2.986,9.4L0,14.809Z" transform="translate(44.378 38.253)" fill="#1a87dd"/>
    <path id="Path-63" data-name="Path" d="M2.986,5.412A7.723,7.723,0,0,1,16.094,2.558a7.832,7.832,0,0,1,1.637,7.618l-2.986,9.4L0,14.809Z" transform="translate(44.378 38.253)" opacity="0.3"/>
    <path id="Path-64" data-name="Path" d="M2.745,5.412l-2.7,8.455a.972.972,0,0,0,.058.742.962.962,0,0,0,.566.48L14.3,19.5l3-9.383a7.732,7.732,0,0,1,9.734-5.034L12.484.373A7.742,7.742,0,0,0,2.745,5.412Z" transform="translate(30.069 33.547)" fill="url(#linear-gradient)"/>
    <path id="Path-65" data-name="Path" d="M.763,1.391,19.675,7.5a.544.544,0,0,0,.42-.034.55.55,0,0,0,.272-.324h0a.549.549,0,0,0-.032-.423.543.543,0,0,0-.323-.272L.053,0h0a1.108,1.108,0,0,0,.71,1.391Z" transform="translate(44.32 53.057)" fill="#1a87dd"/>
    <path id="Path-66" data-name="Path" d="M.763,1.391l7.728,2.5a.549.549,0,0,0,.422-.033.555.555,0,0,0,.274-.324h0a.556.556,0,0,0-.355-.7L.053,0h0a1.108,1.108,0,0,0,.71,1.391Z" transform="translate(44.32 53.057)" opacity="0.2"/>
    <path id="Path-67" data-name="Path" d="M10.136,3.092l-.264.295-.3.343c-.2.232-.4.483-.6.72-.394.483-.768,1-1.118,1.522a25.966,25.966,0,0,0-3.389,6.735c-.192.6-.37,1.2-.509,1.812-.048.179-.053.251-.077.333a2.043,2.043,0,0,0,0,.213,1.118,1.118,0,0,0,0,.227c0,.087.163.29.557.483a6.072,6.072,0,0,0,1.483.454,20.193,20.193,0,0,0,3.734.246,37.812,37.812,0,0,0,3.955-.256c1.325-.14,2.669-.314,3.97-.512l.523,2.092A43.719,43.719,0,0,1,9.877,19.64a20.507,20.507,0,0,1-4.44.1,9.071,9.071,0,0,1-2.467-.589,5.516,5.516,0,0,1-1.325-.763A4.342,4.342,0,0,1,.493,17a4.957,4.957,0,0,1-.37-3.252A21.373,21.373,0,0,1,.6,11.552a25.23,25.23,0,0,1,1.5-4.16A28.746,28.746,0,0,1,4.265,3.527c.413-.614.854-1.208,1.315-1.792.235-.29.48-.575.72-.86l.389-.42C6.829.3,6.939.184,7.131,0Z" transform="translate(14.975 24.349)" fill="#feba99"/>
    <path id="Path-68" data-name="Path" d="M.264,1.792,3.624,0l.149,3.633s-2.4,1-3.773-.1Z" transform="translate(31.25 38.708)" fill="#feba99"/>
    <path id="Path-69" data-name="Path" d="M2.765,0l-.5,3.348-2.112.56L0,.275,2.765,0Z" transform="translate(34.879 38.432)" fill="#feba99"/>
    <path id="Path-70" data-name="Path" d="M5.078.072C2.962.449,0,6.556,0,6.556l5.333,4.831S9.571,6.73,9.346,3.956C9.154,1.613,7.771-.411,5.078.072Z" transform="translate(18.002 20.557)" fill="#1a87dd"/>
    <path id="Path-71" data-name="Path" d="M5.078.072C2.962.449,0,6.556,0,6.556l5.333,4.831S9.571,6.73,9.346,3.956C9.154,1.613,7.771-.411,5.078.072Z" transform="translate(18.002 20.557)" fill="#fff" opacity="0.7"/>
    <path id="Shape-3" data-name="Shape" d="M1.406,1.462C.873,1.433.307.612.014.129a.085.085,0,0,1,0-.092A.078.078,0,0,1,.1,0C.273.037,1.766.375,1.953.882a.339.339,0,0,1-.058.328.629.629,0,0,1-.321.251.586.586,0,0,1-.168,0Z" transform="translate(7.221 127.903)" fill="#1a87dd"/>
    <path id="Shape-4" data-name="Shape" d="M.068,1.148A.1.1,0,0,1,.01,1.076a.115.115,0,0,1,0-.095C.049.942.923-.049,1.532,0a.465.465,0,0,1,.384.234.45.45,0,0,1,.038.49.94.94,0,0,1-.527.356,2.641,2.641,0,0,1-.8.126A2.637,2.637,0,0,1,.068,1.148Z" transform="translate(7.215 127.093)" fill="#1a87dd"/>
    <path id="Shape-5" data-name="Shape" d="M1.432,1.2A5.877,5.877,0,0,1,.054.995.1.1,0,0,1,0,.905.093.093,0,0,1,.054.817C.26.7,2.1-.292,2.56.085a.343.343,0,0,1,.12.3A.748.748,0,0,1,2.43.939a1.509,1.509,0,0,1-.852.268A1.458,1.458,0,0,1,1.432,1.2Z" transform="translate(29.036 134.277)" fill="#1a87dd"/>
    <path id="Shape-6" data-name="Shape" d="M.083,1.875a.086.086,0,0,1-.052,0A.092.092,0,0,1,0,1.788c0-.077.437-1.9,1.44-1.783.249.033.317.155.331.256C1.835.744.679,1.658.126,1.89Z" transform="translate(29.021 133.259)" fill="#1a87dd"/>
    <path id="Path-72" data-name="Path" d="M0,.216.85.091S.346.675,0,.216Z" transform="translate(38.483 7.391)" fill="#2c373b"/>
  </g>
  <g id="freepik--E-mails--inject-34" transform="translate(107.208 72.747)">
    <path id="Path-73" data-name="Path" d="M21.206,10.68,2.621,14.545a1.239,1.239,0,0,1-1.44-.966L.312,9.52,0,8.022l.547-1.71a6.17,6.17,0,0,1,.274-.72.519.519,0,0,1,.048-.106A7.461,7.461,0,0,1,2.093,3.553l.96-.2L18.989.022a1.239,1.239,0,0,1,1.44.966L22.123,9.2A1.247,1.247,0,0,1,21.206,10.68Z" transform="translate(0 0.017)" fill="url(#linear-gradient)"/>
    <path id="Path-74" data-name="Path" d="M21.69,15.111l-5.664,6.146a1.233,1.233,0,0,1-1.742.063L.393,8.3A1.247,1.247,0,0,1,.33,6.545L6.013.4A1.223,1.223,0,0,1,7.761.337L21.647,13.357a1.247,1.247,0,0,1,.312,1.353,1.141,1.141,0,0,1-.269.4Z" transform="translate(22.206 12.53)" fill="url(#linear-gradient)"/>
    <path id="Path-75" data-name="Path" d="M14.154.471l6.24,7.334a1.364,1.364,0,0,1-.206,1.962L6.632,20.4a1.066,1.066,0,0,1-1.411-.28l-4.882-5.6a1.489,1.489,0,0,1-.226-.358,1.044,1.044,0,0,1,.11-1.121l12-12.615a1.285,1.285,0,0,1,1.507-.29,1.442,1.442,0,0,1,.422.343Z" transform="translate(34.681 37.292)" fill="url(#linear-gradient)"/>
  </g>
</svg>
