<svg xmlns="http://www.w3.org/2000/svg" xmlns:xlink="http://www.w3.org/1999/xlink" width="16" height="16" viewBox="0 0 16 16">
  <defs>
    <clipPath id="clip-path">
      <ellipse id="circle" cx="8" cy="8" rx="8" ry="8" fill="#fff"/>
    </clipPath>
  </defs>
  <g id="Clip" clip-path="url(#clip-path)">
    <rect id="stroke" width="15.947" height="2.634" transform="translate(0.054 5.631)" fill="#ed5565"/>
    <rect id="stroke-2" data-name="stroke" width="15.947" height="2.61" transform="translate(0.054 11.539)" fill="#ed5565"/>
    <rect id="stroke-3" data-name="stroke" width="15.947" height="2.61" transform="translate(0.054 -0.254)" fill="#ed5565"/>
    <rect id="rectangle" width="8.727" height="8.364" transform="translate(-0.364)" fill="#4a89dc"/>
    <path id="star" d="M1411.016,1408.119l.553,1.666a.175.175,0,0,0,.166.118h1.787a.171.171,0,0,1,.1.31l-1.445,1.024a.169.169,0,0,0-.064.192l.552,1.662a.174.174,0,0,1-.269.191l-1.447-1.03a.178.178,0,0,0-.206,0l-1.447,1.029a.174.174,0,0,1-.269-.191l.552-1.66a.169.169,0,0,0-.064-.192l-1.445-1.024a.171.171,0,0,1,.1-.31h1.787a.175.175,0,0,0,.166-.118l.553-1.666A.176.176,0,0,1,1411.016,1408.119Z" transform="translate(-1407.189 -1407.116)" fill="#fff"/>
  </g>
</svg>
