<svg id="Iconly_Bold_Chat" data-name="Iconly/Bold/Chat" xmlns="http://www.w3.org/2000/svg" width="20" height="20" viewBox="0 0 20 20">
  <defs>
    <linearGradient id="linear-gradient" x1="0.5" x2="0.5" y2="1" gradientUnits="objectBoundingBox">
      <stop offset="0" stop-color="#455b60"/>
      <stop offset="1" stop-color="#0d1b1e"/>
    </linearGradient>
  </defs>
  <g id="Chat">
    <path id="Chat-2" data-name="Chat" d="M10.02,0A10.007,10.007,0,0,0,0,10.015a10.588,10.588,0,0,0,1.35,5,1.048,1.048,0,0,1,.07.9L.75,18.157a.625.625,0,0,0,.82.781l2.02-.6a1.7,1.7,0,0,1,1.49.361A10,10,0,1,0,10.02,0" fill="url(#linear-gradient)"/>
    <path id="Info_Circle" data-name="Info Circle" d="M10.01,14.681a.881.881,0,0,1-.88-.88.875.875,0,1,1,.88.88ZM10,11.5a.876.876,0,0,1-.88-.87V6.21A.892.892,0,0,1,10,5.33a.876.876,0,0,1,.87.88v4.42A.871.871,0,0,1,10,11.5Z" transform="translate(0 -0.001)" fill="url(#linear-gradient)"/>
  </g>
</svg>
