<svg width="16" height="16" viewBox="0 0 16 16" fill="none" xmlns="http://www.w3.org/2000/svg">
<path d="M12.3334 13H9.66669" stroke="white" stroke-width="1.5" stroke-linecap="round" stroke-linejoin="round"/>
<path d="M11 14.3333V11.6667" stroke="white" stroke-width="1.5" stroke-linecap="round" stroke-linejoin="round"/>
<path d="M8.10667 7.24666C8.04 7.23999 7.96 7.23999 7.88667 7.24666C6.3 7.19333 5.04 5.89333 5.04 4.29333C5.03334 2.65999 6.36 1.33333 7.99334 1.33333C9.62667 1.33333 10.9533 2.65999 10.9533 4.29333C10.9533 5.89333 9.68667 7.19333 8.10667 7.24666Z" stroke="white" stroke-width="1.5" stroke-linecap="round" stroke-linejoin="round"/>
<path d="M7.99336 14.54C6.78003 14.54 5.57336 14.2333 4.65336 13.62C3.04003 12.54 3.04003 10.78 4.65336 9.70667C6.48669 8.48 9.49336 8.48 11.3267 9.70667" stroke="white" stroke-width="1.5" stroke-linecap="round" stroke-linejoin="round"/>
</svg>
