<svg xmlns="http://www.w3.org/2000/svg" width="15.95" height="17.255" viewBox="0 0 15.95 17.255">
  <g id="Group_3994" data-name="Group 3994" transform="translate(0.5 0.5)">
    <path id="Subtraction_1" data-name="Subtraction 1" d="M4.189,16.255H4.18a4.188,4.188,0,0,1-3.04-1.123,4.176,4.176,0,0,1-1.131-3.04L0,5.32A4.14,4.14,0,0,1,.991,2.471,4.017,4.017,0,0,1,3.664,1.236V.626a.629.629,0,0,1,.179-.45A.623.623,0,0,1,4.9.625v.569l3.576,0a4.443,4.443,0,0,0-.321,1.252l-3.255,0,0,.657a.621.621,0,0,1-1.06.445A.628.628,0,0,1,3.667,3.1V2.479a2.5,2.5,0,0,0-2.43,2.84l0,.252L9,5.561A4.491,4.491,0,0,0,12.6,7.388,4.425,4.425,0,0,0,14.63,6.9l.007,5.217a3.849,3.849,0,0,1-4.17,4.126Zm6.417-4.723a.677.677,0,0,0-.658.692.675.675,0,1,0,.666-.692ZM4,11.532H4a.691.691,0,0,0-.657.7.668.668,0,0,0,.659.65h.031a.659.659,0,0,0,.459-.216A.678.678,0,0,0,4,11.533Zm3.308,0h0a.7.7,0,0,0-.657.7.67.67,0,0,0,.662.65H7.34a.67.67,0,0,0,.634-.7.661.661,0,0,0-.666-.649ZM3.995,8.606h0a.691.691,0,0,0-.657.7.668.668,0,0,0,.66.65h.031a.658.658,0,0,0,.458-.216A.678.678,0,0,0,4,8.607ZM7.3,8.577h0a.692.692,0,0,0-.657.7.669.669,0,0,0,.662.651h.029a.67.67,0,0,0,.633-.7A.661.661,0,0,0,7.3,8.579Zm3.307.005h0a.672.672,0,0,0-.657.682v.01a.662.662,0,0,0,.667.649h.015a.671.671,0,0,0-.023-1.341Z" transform="translate(0 0)" fill="#fff" stroke="rgba(0,0,0,0)" stroke-miterlimit="10" stroke-width="1"/>
    <path id="Fill_1" data-name="Fill 1" d="M4.148,1.7H3.17V.741a.731.731,0,1,0-1.462,0V1.7H.731a.741.741,0,0,0,0,1.483h.977v.957a.731.731,0,1,0,1.462,0V3.18h.978a.741.741,0,0,0,0-1.483" transform="translate(10.571 0.476)" fill="#fff"/>
  </g>
</svg>
