<svg xmlns="http://www.w3.org/2000/svg" width="20" height="15.714" viewBox="0 0 20 15.714">
  <g id="Group_3877" data-name="Group 3877" transform="translate(-32 -80)">
    <path id="Path_27415" data-name="Path 27415" d="M32,228.875a2.5,2.5,0,0,0,2.5,2.5h15a2.5,2.5,0,0,0,2.5-2.5V222H32Zm2.946-3.393a1.339,1.339,0,0,1,1.339-1.339h2.143a1.339,1.339,0,0,1,1.339,1.339v.893a1.339,1.339,0,0,1-1.339,1.339H36.286a1.339,1.339,0,0,1-1.339-1.339Z" transform="translate(0 -135.661)" fill="#fff"/>
    <path id="Path_27416" data-name="Path 27416" d="M49.5,80h-15A2.5,2.5,0,0,0,32,82.5v1.161H52V82.5A2.5,2.5,0,0,0,49.5,80Z" fill="#fff"/>
  </g>
</svg>
