<svg xmlns="http://www.w3.org/2000/svg" width="28.988" height="27.056" viewBox="0 0 28.988 27.056">
  <defs>
    <linearGradient id="linear-gradient" x1="0.5" x2="0.5" y2="1" gradientUnits="objectBoundingBox">
      <stop offset="0" stop-color="#65a2f9"/>
      <stop offset="1" stop-color="#3f84e5"/>
    </linearGradient>
  </defs>
  <g id="Group_3643" data-name="Group 3643" transform="translate(-16.004 -32)">
    <path id="Path_27392" data-name="Path 27392" d="M44.026,270.8H43.3a.242.242,0,0,1-.242-.242v-10.3a.242.242,0,0,0-.316-.233,6.337,6.337,0,0,1-1.71.289c-.071,0-.139,0-.205,0a6.536,6.536,0,0,1-3.192-.824.5.5,0,0,0-.483,0,6.533,6.533,0,0,1-3.191.824,6.409,6.409,0,0,1-3.168-.833.5.5,0,0,0-.489,0,6.531,6.531,0,0,1-3.211.833,6.413,6.413,0,0,1-3.187-.845.5.5,0,0,0-.493,0,6.413,6.413,0,0,1-3.187.845c-.066,0-.132,0-.2,0h0a6.335,6.335,0,0,1-1.768-.307.242.242,0,0,0-.316.23v10.318a.242.242,0,0,1-.242.242H17a.986.986,0,0,0-1,.923.966.966,0,0,0,.965,1.01H44a.986.986,0,0,0,1-.923.966.966,0,0,0-.965-1.01Zm-15.461-4.107a.242.242,0,0,1-.242.242H23.009c-.133,0-.242-.242-.242-.242v-3.865a.725.725,0,0,1,.725-.725h4.348a.725.725,0,0,1,.725.725Zm9.421,4.107H33.638a.242.242,0,0,1-.242-.242v-7.73a.725.725,0,0,1,.725-.725H37.5a.725.725,0,0,1,.725.725v7.73A.242.242,0,0,1,37.987,270.8Z" transform="translate(0 -213.676)" fill="url(#linear-gradient)"/>
    <path id="Path_27393" data-name="Path 27393" d="M44.794,40.351,42.2,34.4a4.318,4.318,0,0,0-3.95-2.4H22.758a4.318,4.318,0,0,0-3.95,2.4l-2.592,5.948a2.781,2.781,0,0,0,.175,2.376l.017.027c.03.047.082.121.114.168l.008.012.3.365a.449.449,0,0,0,.036.039l.3.292.025.022a4.207,4.207,0,0,0,.567.409v0a4.469,4.469,0,0,0,2.174.644h.149a4.6,4.6,0,0,0,3.134-1.227l.02-.019a.48.48,0,0,1,.658,0l.02.019a4.668,4.668,0,0,0,6.309,0,.483.483,0,0,1,.656,0,4.669,4.669,0,0,0,6.294.014.476.476,0,0,1,.647,0,4.639,4.639,0,0,0,3.159,1.213h.15a4.309,4.309,0,0,0,2.114-.646c.057-.034.112-.071.168-.107a4.308,4.308,0,0,0,1.1-1.076l.105-.159a.517.517,0,0,0,.029-.051A2.724,2.724,0,0,0,44.794,40.351Z" transform="translate(-0.009)" fill="url(#linear-gradient)"/>
  </g>
</svg>
