<svg width="20" height="20" viewBox="0 0 20 20" fill="none" xmlns="http://www.w3.org/2000/svg">
<path opacity="0.4" d="M8.325 14.9833C12.0023 14.9833 14.9833 12.0023 14.9833 8.325C14.9833 4.6477 12.0023 1.66666 8.325 1.66666C4.64771 1.66666 1.66667 4.6477 1.66667 8.325C1.66667 12.0023 4.64771 14.9833 8.325 14.9833Z" fill="#609DF4"/>
<path d="M18.3083 13.325C18.3083 16.075 16.075 18.3083 13.325 18.3083C11.625 18.3083 10.1333 17.4583 9.23334 16.1667C12.8667 15.7583 15.7583 12.8667 16.1667 9.23334C17.4583 10.1333 18.3083 11.625 18.3083 13.325Z" fill="#609DF4"/>
<path d="M9.54167 8.09167L7.54167 7.39167C7.34167 7.325 7.30001 7.30833 7.30001 7.01667C7.30001 6.8 7.45001 6.625 7.64167 6.625H8.89167C9.15834 6.625 9.37501 6.86667 9.37501 7.16667C9.37501 7.50833 9.65834 7.79167 10 7.79167C10.3417 7.79167 10.625 7.50833 10.625 7.16667C10.625 6.20833 9.88334 5.425 8.95834 5.38333V5.34167C8.95834 5 8.67501 4.71667 8.33334 4.71667C7.99167 4.71667 7.70834 4.99167 7.70834 5.34167V5.38333H7.63334C6.75834 5.38333 6.04167 6.11667 6.04167 7.025C6.04167 7.81667 6.39167 8.325 7.11667 8.575L9.12501 9.275C9.32501 9.34167 9.36667 9.35833 9.36667 9.65C9.36667 9.86667 9.21667 10.0417 9.02501 10.0417H7.77501C7.50834 10.0417 7.29167 9.8 7.29167 9.5C7.29167 9.15833 7.00834 8.875 6.66667 8.875C6.32501 8.875 6.04167 9.15833 6.04167 9.5C6.04167 10.4583 6.78334 11.2417 7.70834 11.2833V11.3333C7.70834 11.675 7.99167 11.9583 8.33334 11.9583C8.67501 11.9583 8.95834 11.675 8.95834 11.3333V11.2917H9.03334C9.90834 11.2917 10.625 10.5583 10.625 9.65C10.625 8.85833 10.2667 8.35 9.54167 8.09167Z" fill="#609DF4"/>
</svg>
