<svg xmlns="http://www.w3.org/2000/svg" width="22" height="17.284" viewBox="0 0 22 17.284">
  <g id="Group_3801" data-name="Group 3801" transform="translate(0 -0.001)">
    <path id="Path_27415" data-name="Path 27415" d="M19.25,10.312H2.75A2.753,2.753,0,0,1,0,7.563V0H22V7.563A2.753,2.753,0,0,1,19.25,10.312ZM4.714,2.357A1.475,1.475,0,0,0,3.241,3.83v.982A1.475,1.475,0,0,0,4.714,6.286H7.071A1.475,1.475,0,0,0,8.545,4.812V3.83A1.475,1.475,0,0,0,7.071,2.357Z" transform="translate(0 6.973)" fill="#3f84e5"/>
    <path id="Path_27416" data-name="Path 27416" d="M19.25,0H2.75A2.749,2.749,0,0,0,0,2.749V4.025H22V2.749A2.749,2.749,0,0,0,19.25,0Z" transform="translate(0)" fill="#3f84e5"/>
  </g>
</svg>
