<svg id="Iconly_Bold_Scan" data-name="Iconly/Bold/Scan" xmlns="http://www.w3.org/2000/svg" width="22" height="18" viewBox="0 0 22 18">
  <defs>
    <linearGradient id="linear-gradient" x1="0.5" x2="0.5" y2="1" gradientUnits="objectBoundingBox">
      <stop offset="0" stop-color="#455b60"/>
      <stop offset="1" stop-color="#0d1b1e"/>
    </linearGradient>
  </defs>
  <g id="Scan">
    <path id="Scan-2" data-name="Scan" d="M14.6,18a.747.747,0,1,1,0-1.493h1.593a2.44,2.44,0,0,0,2.462-2.414v-3.56H15.868A5.238,5.238,0,0,1,11,13.838a5.328,5.328,0,0,1-4.958-3.3h-2.7V14.1A2.437,2.437,0,0,0,5.8,16.506H7.428a.747.747,0,1,1,0,1.493H5.8a3.946,3.946,0,0,1-3.974-3.9V10.534H.762a.746.746,0,1,1,0-1.492H21.239a.746.746,0,1,1,0,1.492H20.177v3.56A3.95,3.95,0,0,1,16.194,18ZM11,3.254a5.066,5.066,0,0,1,5.188,4.339L5.881,7.6A4.945,4.945,0,0,1,11,3.254Zm7.655,2.508V3.906a2.44,2.44,0,0,0-2.461-2.413H14.6a.754.754,0,0,1-.761-.745A.755.755,0,0,1,14.6,0h1.593a3.948,3.948,0,0,1,3.983,3.906V5.763a.761.761,0,0,1-1.522,0Zm-16.831,0V3.9A3.945,3.945,0,0,1,5.8,0h1.63a.755.755,0,0,1,.761.747.753.753,0,0,1-.761.746H5.8A2.436,2.436,0,0,0,3.347,3.9V5.762a.762.762,0,0,1-1.524,0Z" fill="url(#linear-gradient)"/>
  </g>
</svg>
