<svg id="AU_australia" xmlns="http://www.w3.org/2000/svg" width="16" height="16" viewBox="0 0 16 16">
  <defs>
    <clipPath id="clip-path">
      <ellipse id="vectorMask" cx="7.88" cy="8" rx="7.88" ry="8" fill="none"/>
    </clipPath>
    <clipPath id="clip-path-2">
      <rect id="rectangle" width="9.025" height="9.001" fill="#4758a9"/>
    </clipPath>
  </defs>
  <ellipse id="circle" cx="7.942" cy="7.921" rx="7.942" ry="7.921" transform="translate(0 0.086)" fill="#4758a9"/>
  <g id="Group_1" data-name="Group 1" transform="translate(0.24 0)" clip-path="url(#clip-path)">
    <g id="Group_1-2" data-name="Group 1" transform="translate(-0.601 -0.274)">
      <g id="rectangle-2" data-name="rectangle" transform="translate(0 0)">
        <rect id="rectangle-3" data-name="rectangle" width="9.025" height="9.001" fill="#4758a9"/>
        <g id="Clip" clip-path="url(#clip-path-2)">
          <path id="stroke" d="M656.741,153.969,657.775,155,649,163.75l-1.034-1.031Z" transform="translate(-648.195 -154.24)" fill="#f5f7fa"/>
          <path id="stroke-2" data-name="stroke" d="M649,153.969,647.969,155l8.772,8.749,1.034-1.031Z" transform="translate(-648.195 -154.24)" fill="#f5f7fa"/>
          <path id="stroke-3" data-name="stroke" d="M659.484,156.712l.517.516-8.772,8.749-.517-.516Z" transform="translate(-650.679 -156.725)" fill="#ed5565"/>
          <path id="stroke-4" data-name="stroke" d="M651.229,156.712l-.517.516,8.772,8.749.517-.516Z" transform="translate(-650.679 -156.725)" fill="#ed5565"/>
          <rect id="stroke-5" data-name="stroke" width="1.444" height="9.001" transform="translate(3.971)" fill="#f5f7fa"/>
          <rect id="stroke-6" data-name="stroke" width="9.025" height="1.44" transform="translate(0 3.961)" fill="#f5f7fa"/>
          <rect id="stroke-7" data-name="stroke" width="0.722" height="9.001" transform="translate(4.332)" fill="#ed5565"/>
          <rect id="stroke-8" data-name="stroke" width="9.025" height="0.72" transform="translate(0 4.321)" fill="#ed5565"/>
        </g>
      </g>
    </g>
  </g>
  <path id="star" d="M702,268.076l.366,1.06a.115.115,0,0,0,.11.075h1.182a.108.108,0,0,1,.068.2l-.956.652a.106.106,0,0,0-.042.122l.365,1.058a.114.114,0,0,1-.178.122l-.957-.656a.122.122,0,0,0-.136,0l-.957.655a.114.114,0,0,1-.178-.122l.365-1.057a.105.105,0,0,0-.042-.122l-.956-.652a.108.108,0,0,1,.068-.2H701.3a.115.115,0,0,0,.11-.075l.366-1.06A.118.118,0,0,1,702,268.076Z" transform="translate(-695.685 -257.827)" fill="#fff"/>
  <path id="star-2" data-name="star" d="M775.6,214.01l.293.826a.092.092,0,0,0,.088.059h.946a.084.084,0,0,1,.054.154l-.765.508a.081.081,0,0,0-.034.1l.292.824a.091.091,0,0,1-.142.095l-.766-.511a.1.1,0,0,0-.109,0l-.766.51a.091.091,0,0,1-.142-.1l.292-.823a.081.081,0,0,0-.034-.1l-.765-.508a.084.084,0,0,1,.054-.154h.946a.092.092,0,0,0,.088-.059l.293-.826A.1.1,0,0,1,775.6,214.01Z" transform="translate(-762.712 -208.858)" fill="#fff"/>
</svg>
