<svg xmlns="http://www.w3.org/2000/svg" width="20" height="20" viewBox="0 0 20 20">
  <defs>
    <linearGradient id="linear-gradient" x1="0.5" x2="0.5" y2="1" gradientUnits="objectBoundingBox">
      <stop offset="0" stop-color="#455b60"/>
      <stop offset="1" stop-color="#0d1b1e"/>
    </linearGradient>
  </defs>
  <g id="Group_3983" data-name="Group 3983" transform="translate(-2 -2)">
    <path id="Path_27523" data-name="Path 27523" d="M12,2A10,10,0,0,1,22,12v7a3,3,0,0,1-3,3H16a1,1,0,0,1-1-1V15a1,1,0,0,1,1-1h4.5V12a8.5,8.5,0,0,0-17,0v2H8a1,1,0,0,1,1,1v6a1,1,0,0,1-1,1H5a3,3,0,0,1-3-3V12A10,10,0,0,1,12,2Z" fill="url(#linear-gradient)"/>
  </g>
</svg>
