<svg width="22" height="22" viewBox="0 0 22 22" fill="none" xmlns="http://www.w3.org/2000/svg">
<path d="M20.625 2.05815L15.1202 2.05817V0.687661C15.1202 0.307728 14.8125 0 14.4327 0C14.0528 0 13.7452 0.307728 13.7452 0.687661V2.05783H8.24519V0.687661C8.24519 0.307728 7.93753 0 7.55769 0C7.17784 0 6.87019 0.307728 6.87019 0.687661V2.05783H1.375C0.615656 2.05783 0 2.67363 0 3.43315V20.6247C0 21.3842 0.615656 22 1.375 22H20.625C21.3843 22 22 21.3842 22 20.6247V3.43315C22 2.67395 21.3843 2.05815 20.625 2.05815ZM20.625 20.6247H1.375V3.43315H6.87019V4.12597C6.87019 4.50588 7.17784 4.81363 7.55769 4.81363C7.93753 4.81363 8.24519 4.50588 8.24519 4.12597V3.43349H13.7452V4.12631C13.7452 4.50624 14.0528 4.81397 14.4327 4.81397C14.8125 4.81397 15.1202 4.50624 15.1202 4.12631V3.43349H20.625V20.6247ZM15.8125 10.9977H17.1875C17.567 10.9977 17.875 10.6897 17.875 10.3101V8.93476C17.875 8.55517 17.567 8.2471 17.1875 8.2471H15.8125C15.433 8.2471 15.125 8.55517 15.125 8.93476V10.3101C15.125 10.6897 15.433 10.9977 15.8125 10.9977ZM15.8125 16.4987H17.1875C17.567 16.4987 17.875 16.191 17.875 15.811V14.4357C17.875 14.0561 17.567 13.748 17.1875 13.748H15.8125C15.433 13.748 15.125 14.0561 15.125 14.4357V15.811C15.125 16.1913 15.433 16.4987 15.8125 16.4987ZM11.6875 13.748H10.3125C9.933 13.748 9.625 14.0561 9.625 14.4357V15.811C9.625 16.191 9.933 16.4987 10.3125 16.4987H11.6875C12.067 16.4987 12.375 16.191 12.375 15.811V14.4357C12.375 14.0565 12.067 13.748 11.6875 13.748ZM11.6875 8.2471H10.3125C9.933 8.2471 9.625 8.55517 9.625 8.93476V10.3101C9.625 10.6897 9.933 10.9977 10.3125 10.9977H11.6875C12.067 10.9977 12.375 10.6897 12.375 10.3101V8.93476C12.375 8.55483 12.067 8.2471 11.6875 8.2471ZM6.1875 8.2471H4.8125C4.433 8.2471 4.125 8.55517 4.125 8.93476V10.3101C4.125 10.6897 4.433 10.9977 4.8125 10.9977H6.1875C6.567 10.9977 6.875 10.6897 6.875 10.3101V8.93476C6.875 8.55483 6.567 8.2471 6.1875 8.2471ZM6.1875 13.748H4.8125C4.433 13.748 4.125 14.0561 4.125 14.4357V15.811C4.125 16.191 4.433 16.4987 4.8125 16.4987H6.1875C6.567 16.4987 6.875 16.191 6.875 15.811V14.4357C6.875 14.0565 6.567 13.748 6.1875 13.748Z" fill="#3F84E5"/>
</svg>
