<svg width="384" height="125" viewBox="0 0 384 125" fill="none" xmlns="http://www.w3.org/2000/svg">
<path d="M0 3.59922C1.3 3.09922 2.59999 2.19923 3.89999 2.19923C20 2.09923 36.1 2.09922 52.2 2.09922C60.9 2.09922 66.5 6.79921 68.1 15.3992C72.1 36.8992 76.1 58.4992 80.2 79.9992C80.3 80.6992 80.7 81.2992 81.2 82.5992C85.7 71.1992 90.1 60.2992 94.4 49.4992C100.2 34.7992 106.1 20.0992 111.7 5.39921C112.7 2.89921 113.9 1.99922 116.6 2.09922C126.1 2.29922 135.5 2.19923 145.6 2.19923C145.1 3.69923 144.7 4.79921 144.3 5.89921C128.6 43.3992 112.8 80.8992 97.2 118.499C96.1 121.199 94.7 122.199 91.8 122.099C82.2 121.899 72.6 121.999 62.8 121.999C59.7 109.899 56.5 97.9992 53.5 86.0992C48.4 66.4992 43.3 46.8992 38.4 27.1992C36.9 20.9992 33.7 16.4992 27.6 14.4992C18.5 11.4992 9.4 8.69921 0.199997 5.89921C-3.05474e-06 5.09921 0 4.39922 0 3.59922Z" fill="#1434CB"/>
<path d="M358.3 2.20001C366.7 42.2 374.9 81.8 383.3 122C381.5 122 380 122 378.5 122C371.4 122 364.3 122 357.2 122C355.3 122 354.4 121.6 354 119.4C353.2 114.4 351.9 109.4 350.8 104.1C347.2 104.1 343.8 104.1 340.3 104.1C332.1 104.1 323.8 104.3 315.6 104C312.4 103.9 310.6 104.7 309.7 108C308.6 111.9 307.1 115.8 305.5 119.5C305.1 120.5 303.7 121.7 302.8 121.7C292.8 121.9 282.9 121.8 272.3 121.8C272.9 120.3 273.3 119.3 273.7 118.2C288.3 83.2 303 48.2 317.6 13.2C321.2 4.60001 325.2 2 334.5 2C342.3 2.2 350.1 2.20001 358.3 2.20001ZM345.6 79.3C342.6 64.8 339.6 50.6 336.6 36.4C336.3 36.4 336 36.4 335.8 36.4C330.7 50.6 325.5 64.8 320.3 79.2C328.7 79.3 336.8 79.3 345.6 79.3Z" fill="#1434CB"/>
<path d="M191 91.2C201.5 96.5 212.3 99.4 223.8 98.7C227.7 98.4 231.8 97.5 235.3 95.9C242.7 92.4 243.5 84.8 237.2 79.6C234 77 230.3 75.2 226.8 73.1C221.9 70.2 216.7 67.6 212.1 64.3C190.6 49.1 197.1 24.3 210.8 13C224.1 2.00003 239.8 -0.899977 256.4 0.400023C264.1 1.00002 271.7 3.10004 279.9 4.60004C278 13.8 276.2 22 274.4 30.6C271.6 29.6 268.9 28.7 266.3 27.9C258.1 25.5 249.8 24.3 241.3 26.1C239.7 26.4 238.2 27 236.7 27.7C229.3 31.3 228.6 38.2 235.4 42.9C240.1 46.2 245.3 48.7 250.2 51.6C253.2 53.4 256.3 55.1 259.1 57C276.9 69.3 279.4 91.8001 264.7 107.9C257.2 116.2 247.4 120.4 236.7 122.5C220.6 125.6 204.8 124 189.2 119.1C186.4 118.2 185.6 117.1 186.3 114.1C187.9 106.5 189.3 99 191 91.2Z" fill="#1434CB"/>
<path d="M133.1 122C141.7 81.8004 150.2 42.1004 158.7 2.40039C169.1 2.40039 179.2 2.40039 189.7 2.40039C188.2 9.70039 186.7 16.7004 185.2 23.7004C178.6 54.6004 171.9 85.5004 165.3 116.3C164.1 121.9 164.2 121.9 158.3 121.9C150.1 122 141.7 122 133.1 122Z" fill="#1434CB"/>
</svg>
