<svg xmlns="http://www.w3.org/2000/svg" width="8.397" height="9.33" viewBox="0 0 8.397 9.33">
  <g id="Iconly_Bold_Swap" data-name="Iconly/Bold/Swap" transform="translate(0 9.33) rotate(-90)">
    <g id="Swap">
      <path id="Swap-2" data-name="Swap" d="M6.743,8.267a2.073,2.073,0,0,1-.2-.184,8.241,8.241,0,0,1-1.451-2.16,1.894,1.894,0,0,1-.149-.5V5.4A.682.682,0,0,1,5.3,4.8a3.039,3.039,0,0,1,.485-.131,9.749,9.749,0,0,1,1.349-.081,8.362,8.362,0,0,1,1.393.092,3.475,3.475,0,0,1,.39.1.7.7,0,0,1,.331.3.762.762,0,0,1,.08.341,1.807,1.807,0,0,1-.123.449A8.291,8.291,0,0,1,7.735,8.078c-.075.076-.165.157-.187.178a.667.667,0,0,1-.416.141A.636.636,0,0,1,6.743,8.267Zm-5.1-1.075.12-2.136a.436.436,0,1,1,.871,0l.12,2.136a.555.555,0,1,1-1.111,0ZM.8,3.719a3.451,3.451,0,0,1-.389-.1.7.7,0,0,1-.331-.3A.756.756,0,0,1,0,2.978a1.839,1.839,0,0,1,.122-.449A8.286,8.286,0,0,1,1.595.319C1.67.244,1.76.162,1.781.141A.669.669,0,0,1,2.2,0a.638.638,0,0,1,.389.13,2.139,2.139,0,0,1,.2.184,8.28,8.28,0,0,1,1.451,2.16,1.916,1.916,0,0,1,.15.5V3a.683.683,0,0,1-.363.6,3.005,3.005,0,0,1-.485.131,9.751,9.751,0,0,1-1.35.081A8.362,8.362,0,0,1,.8,3.719Zm5.9-.378L6.579,1.2a.555.555,0,1,1,1.111,0L7.57,3.341a.436.436,0,1,1-.871,0Z" fill="#2c373b"/>
    </g>
  </g>
</svg>
