<svg width="100" height="70" viewBox="0 0 100 70" fill="none" xmlns="http://www.w3.org/2000/svg">
<path d="M17.2628 50.3984V64.7341H14.1475V54.1877L9.28902 62.5071H7.88822L3.05831 54.1489V64.7341H0V50.3984H3.40059C3.92985 50.3984 4.429 50.6668 4.67303 51.102L8.64567 58.1424L12.6326 51.102C12.875 50.6668 13.3758 50.3984 13.905 50.3984H17.2628Z" fill="white"/>
<path d="M24.6215 64.9488C23.4331 64.9488 22.3571 64.6894 21.3984 64.1736C20.4381 63.6578 19.6759 62.9587 19.1118 62.0763C18.5477 61.1953 18.2656 60.2159 18.2656 59.1397C18.2656 58.05 18.5477 57.0647 19.1118 56.1822C19.6759 55.2997 20.4381 54.6051 21.3984 54.0953C22.3587 53.5869 23.4331 53.332 24.6215 53.332C25.81 53.332 26.8859 53.5869 27.8446 54.0953C28.8065 54.6051 29.5687 55.2997 30.1328 56.1822C30.6969 57.0632 30.979 58.05 30.979 59.1397C30.979 60.2159 30.7017 61.1938 30.1439 62.0763C29.5877 62.9587 28.8287 63.6578 27.8684 64.1736C26.9081 64.6909 25.8258 64.9488 24.6215 64.9488ZM24.6215 62.3893C25.2475 62.3893 25.81 62.2432 26.3139 61.9496C26.8162 61.6559 27.2124 61.2653 27.5024 60.7779C27.7908 60.2904 27.9365 59.7374 27.9365 59.1218C27.9365 58.5195 27.7876 57.974 27.4897 57.4865C27.1918 56.9991 26.7956 56.6115 26.3012 56.3253C25.8052 56.0391 25.2538 55.8945 24.6453 55.8945C24.0194 55.8945 23.4568 56.0376 22.9529 56.3253C22.4506 56.6115 22.0544 56.9991 21.7645 57.4865C21.4761 57.974 21.3303 58.5195 21.3303 59.1218C21.3303 59.7389 21.4761 60.2904 21.7645 60.7779C22.0544 61.2653 22.4474 61.6559 22.9418 61.9496C23.4362 62.2417 23.9956 62.3893 24.6215 62.3893Z" fill="white"/>
<path d="M31.7617 64.7335V53.5267H34.8929V54.4509C35.8088 53.6907 36.9292 53.3105 38.2555 53.3105C39.1698 53.3105 39.9811 53.5014 40.691 53.8815C41.3994 54.2616 41.9508 54.7848 42.3485 55.4511C42.7431 56.1175 42.9428 56.8881 42.9428 57.7632V64.732H39.8322V58.2148C39.8322 57.4829 39.6072 56.906 39.1587 56.4827C38.7087 56.0593 38.1018 55.8491 37.3396 55.8491C36.8071 55.8491 36.3349 55.946 35.9229 56.1398C35.5109 56.3336 35.1686 56.6094 34.8929 56.9686V64.7335H31.7617V64.7335Z" fill="white"/>
<path d="M50.0047 64.9493C48.8162 64.9493 47.7371 64.6869 46.7689 64.1637C45.8023 63.6405 45.0353 62.9443 44.4712 62.0768C43.9071 61.2092 43.625 60.2313 43.625 59.1402C43.625 58.0654 43.8944 57.086 44.4363 56.2036C44.9783 55.3226 45.7135 54.6235 46.6421 54.1062C47.5723 53.5889 48.6023 53.3311 49.7289 53.3311C50.8714 53.3311 51.8888 53.5934 52.7809 54.1166C53.6731 54.6399 54.375 55.3539 54.8853 56.2572C55.394 57.1606 55.6522 58.1936 55.6522 59.3548V60.13H46.8243C46.9622 60.5742 47.1904 60.9767 47.5105 61.3344C47.8306 61.6922 48.2188 61.968 48.6752 62.1617C49.1331 62.3555 49.6291 62.4524 50.1615 62.4524C50.6813 62.4524 51.1678 62.3764 51.6257 62.2273C52.0837 62.0768 52.4719 61.8576 52.792 61.5714L54.8488 63.3349C54.1167 63.8939 53.3672 64.3038 52.5971 64.5617C51.8301 64.8211 50.9649 64.9493 50.0047 64.9493ZM46.78 58.0222H52.5876C52.464 57.578 52.2643 57.1874 51.9823 56.8505C51.7002 56.5136 51.3611 56.2513 50.9649 56.0649C50.5688 55.8786 50.1409 55.7862 49.683 55.7862C49.1965 55.7862 48.7528 55.8756 48.3567 56.0545C47.9605 56.2349 47.6277 56.4927 47.3615 56.8296C47.0953 57.1665 46.902 57.5645 46.78 58.0222Z" fill="white"/>
<path d="M57.2523 69.38C56.9781 69.38 56.7151 69.3696 56.4631 69.3472C56.2112 69.3264 56.0099 69.2861 55.8578 69.2295V66.7132C56.1319 66.7714 56.4901 66.7997 56.9322 66.7997C58.0747 66.7997 58.8686 66.2899 59.3107 65.2732L59.4929 64.8216L54.8516 53.5283H58.3266L61.2772 61.165L64.6382 53.5283H68.0229L62.5354 65.6385C62.1234 66.5269 61.6749 67.2484 61.1853 67.8014C60.6988 68.353 60.1378 68.7539 59.5056 69.0059C58.8733 69.2533 58.1222 69.38 57.2523 69.38Z" fill="white"/>
<path d="M74.1002 64.9051C72.7897 64.9051 71.7945 64.6219 71.1163 64.0555C70.4381 63.489 70.099 62.6676 70.099 61.5929V55.979H67.6523V53.5269H70.099V50.6663L73.208 50V53.5284H76.6387V55.9805H73.208V60.9713C73.208 61.487 73.3332 61.8567 73.5867 62.0788C73.8387 62.3009 74.2602 62.4127 74.856 62.4127C75.1761 62.4127 75.4613 62.3949 75.7133 62.3591C75.9652 62.3233 76.2441 62.2622 76.5484 62.1772V64.5861C76.2283 64.686 75.8321 64.765 75.3599 64.8231C74.8861 64.8768 74.4662 64.9051 74.1002 64.9051Z" fill="white"/>
<path d="M82.6996 64.9488C81.5112 64.9488 80.4352 64.6894 79.4765 64.1736C78.5163 63.6578 77.7541 62.9587 77.1899 62.0763C76.6258 61.1953 76.3438 60.2159 76.3438 59.1397C76.3438 58.05 76.6258 57.0647 77.1899 56.1822C77.7541 55.2997 78.5163 54.6051 79.4765 54.0953C80.4368 53.5869 81.5112 53.332 82.6996 53.332C83.8881 53.332 84.9641 53.5869 85.9228 54.0953C86.8846 54.6051 87.6468 55.2997 88.211 56.1822C88.7751 57.0632 89.0571 58.05 89.0571 59.1397C89.0571 60.2159 88.7798 61.1938 88.222 62.0763C87.6658 62.9587 86.9068 63.6578 85.9465 64.1736C84.9878 64.6909 83.904 64.9488 82.6996 64.9488ZM82.6996 62.3893C83.3256 62.3893 83.8881 62.2432 84.392 61.9496C84.8943 61.6559 85.2905 61.2653 85.5805 60.7779C85.8689 60.2904 86.0147 59.7374 86.0147 59.1218C86.0147 58.5195 85.8657 57.974 85.5678 57.4865C85.2699 56.9991 84.8737 56.6115 84.3793 56.3253C83.8834 56.0391 83.3319 55.8945 82.7234 55.8945C82.0975 55.8945 81.535 56.0376 81.0311 56.3253C80.5287 56.6115 80.1326 56.9991 79.8426 57.4865C79.5542 57.974 79.4084 58.5195 79.4084 59.1218C79.4084 59.7389 79.5542 60.2904 79.8426 60.7779C80.1326 61.2653 80.5256 61.6559 81.02 61.9496C81.5159 62.2417 82.0753 62.3893 82.6996 62.3893Z" fill="white"/>
<path d="M94.2736 64.9477C93.2072 64.9477 92.2041 64.8151 91.2676 64.5497C90.3295 64.2859 89.5182 63.9087 88.832 63.4213L90.3865 61.4417C91.0711 61.8725 91.7319 62.1945 92.3641 62.4106C92.9964 62.6253 93.6255 62.7341 94.2514 62.7341C94.9518 62.7341 95.5128 62.6238 95.9311 62.4002C96.3495 62.1781 96.5602 61.8874 96.5602 61.5296C96.5602 61.2434 96.4414 61.0124 96.2053 60.841C95.9676 60.6695 95.5904 60.5473 95.0738 60.4757L92.7857 60.1523C91.6115 59.9808 90.7177 59.6186 90.0997 59.0671C89.4833 58.5155 89.1743 57.7866 89.1743 56.8833C89.1743 56.1513 89.3756 55.5208 89.7796 54.9901C90.1837 54.4594 90.7573 54.051 91.5053 53.7633C92.2516 53.4771 93.12 53.334 94.112 53.334C94.9962 53.334 95.8519 53.4488 96.6838 53.6783C97.5142 53.9079 98.2954 54.2597 99.0275 54.7322L97.5221 56.6447C96.866 56.2572 96.237 55.9784 95.6348 55.8055C95.0326 55.6341 94.4352 55.5476 93.8394 55.5476C93.2753 55.5476 92.8221 55.6475 92.4782 55.8487C92.1344 56.05 91.9632 56.3153 91.9632 56.6447C91.9632 56.9459 92.0868 57.1829 92.3309 57.3543C92.5733 57.5257 92.9853 57.6554 93.5653 57.7404L95.8535 58.0415C97.0419 58.1995 97.9483 58.5588 98.5743 59.1178C99.2002 59.6768 99.5124 60.3863 99.5124 61.2479C99.5124 61.9649 99.2842 62.5999 98.8278 63.1515C98.3698 63.703 97.7487 64.1413 96.9627 64.4633C96.1767 64.7867 95.2798 64.9477 94.2736 64.9477Z" fill="white"/>
<path d="M57.9692 9.92631C56.1566 15.0723 54.1652 20.1067 52.001 25.0188C51.9567 25.1319 51.949 25.2588 52.001 25.3703C52.3174 26.1513 52.6276 26.9323 52.9302 27.7148C53.0693 28.0816 53.5874 28.0984 53.7571 27.7423C56.6289 21.5754 59.2271 15.2068 61.5379 8.65625C60.4314 8.98637 59.331 9.32414 58.2336 9.66955C58.116 9.7154 58.0197 9.80863 57.9692 9.92631Z" fill="white"/>
<path d="M53.4136 11.4283C52.3545 14.4651 51.2327 17.4637 50.0482 20.4211C50.0023 20.5281 50.0054 20.661 50.0543 20.7665C50.5403 21.8761 51.011 22.9857 51.4665 24.0998C53.4411 19.5301 55.2675 14.8579 56.9395 10.0879C55.8468 10.4409 54.7586 10.8016 53.675 11.17C53.5512 11.2097 53.4549 11.306 53.4136 11.4283Z" fill="white"/>
<path d="M50.4269 8.49344C49.6306 10.9648 48.7946 13.4132 47.9158 15.8357C47.8776 15.9533 47.8807 16.0802 47.9403 16.1902C48.4675 17.2922 48.978 18.3972 49.4747 19.5052C50.6363 16.5494 51.7352 13.5538 52.7714 10.52C55.7196 9.49145 58.7029 8.52248 61.723 7.61616C61.8498 7.57948 61.9446 7.48625 61.9889 7.36246C62.6721 5.38782 63.3293 3.39638 63.9589 1.38965C63.4255 3.09529 62.1142 4.35924 60.4208 4.89111C60.1426 4.97975 59.866 5.06993 59.5879 5.1601C56.5831 6.12296 53.6135 7.14849 50.6821 8.23056C50.5583 8.27183 50.4651 8.36964 50.4269 8.49344Z" fill="white"/>
<path d="M36.2929 11.0735C39.8968 12.4597 43.4854 13.9973 47.0464 15.6922C46.6567 15.1344 46.2639 14.5796 45.8666 14.0263C44.488 12.1006 45.1574 9.39081 47.3414 8.52576C51.4649 6.91793 55.6648 5.42931 59.9381 4.06144C59.822 4.42671 59.7043 4.79199 59.5866 5.15727C59.8632 5.06709 60.1414 4.97845 60.4195 4.88828C62.113 4.35641 63.4243 3.09246 63.9577 1.38682C64.1976 0.633337 63.3723 -0.193502 62.6112 0.0403357C53.4854 2.906 44.6821 6.3234 36.2547 10.2482C35.8986 10.4163 35.92 10.9299 36.2929 11.0735Z" fill="white"/>
</svg>
