<svg width="36" height="36" viewBox="0 0 36 36" fill="none" xmlns="http://www.w3.org/2000/svg">
<path d="M25.7142 0H10.2858C4.60512 0 0 4.60512 0 10.2858V25.7142C0 31.3949 4.60512 36 10.2858 36H25.7142C31.3949 36 36 31.3949 36 25.7142V10.2858C36 4.60512 31.3949 0 25.7142 0Z" fill="#056CAD"/>
<path d="M11.7666 18.0425V21.5755C11.7666 21.9269 11.9062 22.2639 12.1547 22.5124C12.4032 22.7609 12.7402 22.9005 13.0916 22.9005C13.443 22.9005 13.7801 22.7609 14.0285 22.5124C14.277 22.2639 14.4166 21.9269 14.4166 21.5755V18.0425C14.4166 17.6911 14.277 17.354 14.0285 17.1056C13.7801 16.8571 13.443 16.7175 13.0916 16.7175C12.7402 16.7175 12.4032 16.8571 12.1547 17.1056C11.9062 17.354 11.7666 17.6911 11.7666 18.0425V18.0425ZM17.0666 18.0425V21.5755C17.0666 21.9269 17.2062 22.2639 17.4547 22.5124C17.7032 22.7609 18.0402 22.9005 18.3916 22.9005C18.743 22.9005 19.0801 22.7609 19.3285 22.5124C19.577 22.2639 19.7166 21.9269 19.7166 21.5755V18.0425C19.7166 17.6911 19.577 17.354 19.3285 17.1056C19.0801 16.8571 18.743 16.7175 18.3916 16.7175C18.0402 16.7175 17.7032 16.8571 17.4547 17.1056C17.2062 17.354 17.0666 17.6911 17.0666 18.0425V18.0425ZM11.3256 27.3195H25.4566C25.808 27.3195 26.1451 27.1799 26.3935 26.9314C26.642 26.6829 26.7816 26.3459 26.7816 25.9945C26.7816 25.6431 26.642 25.306 26.3935 25.0576C26.1451 24.8091 25.808 24.6695 25.4566 24.6695H11.3256C10.9742 24.6695 10.6372 24.8091 10.3887 25.0576C10.1402 25.306 10.0006 25.6431 10.0006 25.9945C10.0006 26.3459 10.1402 26.6829 10.3887 26.9314C10.6372 27.1799 10.9742 27.3195 11.3256 27.3195V27.3195ZM22.3656 18.0425V21.5755C22.3656 21.9269 22.5052 22.2639 22.7537 22.5124C23.0022 22.7609 23.3392 22.9005 23.6906 22.9005C24.042 22.9005 24.3791 22.7609 24.6275 22.5124C24.876 22.2639 25.0156 21.9269 25.0156 21.5755V18.0425C25.0156 17.6911 24.876 17.354 24.6275 17.1056C24.3791 16.8571 24.042 16.7175 23.6906 16.7175C23.3392 16.7175 23.0022 16.8571 22.7537 17.1056C22.5052 17.354 22.3656 17.6911 22.3656 18.0425V18.0425ZM17.5656 9.20147L10.5926 12.8795C10.374 12.9931 10.1999 13.1768 10.0982 13.4012C9.99644 13.6256 9.97297 13.8776 10.0315 14.1169C10.0901 14.3562 10.2273 14.5689 10.4211 14.721C10.615 14.873 10.8543 14.9556 11.1006 14.9555H25.6866C25.9323 14.9538 26.1704 14.87 26.3629 14.7173C26.5554 14.5646 26.6912 14.3519 26.7487 14.1131C26.8063 13.8742 26.7822 13.623 26.6803 13.3994C26.5784 13.1758 26.4046 12.9928 26.1866 12.8795L19.2126 9.20547C18.9598 9.07057 18.6777 9 18.3911 9C18.1046 9 17.8224 9.07057 17.5696 9.20547L17.5656 9.20147Z" fill="white"/>
</svg>
