<svg xmlns="http://www.w3.org/2000/svg" xmlns:xlink="http://www.w3.org/1999/xlink" width="17.014" height="15" viewBox="0 0 17.014 15">
  <defs>
    <linearGradient id="linear-gradient" x1="0.5" x2="0.5" y2="1" gradientUnits="objectBoundingBox">
      <stop offset="0" stop-color="#65a2f9"/>
      <stop offset="1" stop-color="#3f84e5"/>
    </linearGradient>
  </defs>
  <g id="_2_User" data-name="2 User" transform="translate(0.722 0.5)">
    <path id="_2_Friends" data-name="2 Friends" d="M0,11.6c0-1.9,2.709-2.38,5.88-2.38,3.188,0,5.88.493,5.88,2.4S9.05,14,5.88,14C2.691,14,0,13.507,0,11.6Zm13.306.37c.273-2.421-1.893-3.569-2.454-3.832a.041.041,0,0,1-.027-.042.033.033,0,0,1,.03-.022,15.123,15.123,0,0,1,3,.248,2.563,2.563,0,0,1,1.97,1.142,1.6,1.6,0,0,1,0,1.46c-.426.874-1.8,1.155-2.33,1.227l-.024,0A.163.163,0,0,1,13.306,11.972ZM1.989,3.7A3.787,3.787,0,0,1,5.88,0,3.787,3.787,0,0,1,9.77,3.7a3.787,3.787,0,0,1-3.89,3.7A3.787,3.787,0,0,1,1.989,3.7Zm8.986,3.157a3.345,3.345,0,0,1-.448-.041.137.137,0,0,1-.1-.213A4.89,4.89,0,0,0,10.351.821a.084.084,0,0,1-.014-.1.119.119,0,0,1,.076-.043,3.455,3.455,0,0,1,.654-.063,3.168,3.168,0,0,1,3.166,3.948,3.221,3.221,0,0,1-3.169,2.3Z" transform="translate(-0.222 0)" stroke="rgba(0,0,0,0)" stroke-width="1" fill="url(#linear-gradient)"/>
  </g>
</svg>
