<svg xmlns="http://www.w3.org/2000/svg" width="16.781" height="18.32" viewBox="0 0 16.781 18.32">
  <path id="Path_27401" data-name="Path 27401" d="M3.766,10.3v3.533a1.325,1.325,0,0,0,2.65,0V10.3a1.325,1.325,0,0,0-2.65,0Zm5.3,0v3.533a1.325,1.325,0,0,0,2.65,0V10.3a1.325,1.325,0,0,0-2.65,0ZM3.325,19.577H17.456a1.325,1.325,0,1,0,0-2.65H3.325a1.325,1.325,0,0,0,0,2.65ZM14.365,10.3v3.533a1.325,1.325,0,0,0,2.65,0V10.3a1.325,1.325,0,0,0-2.65,0Zm-4.8-8.841L2.592,5.137A1.1,1.1,0,0,0,3.1,7.213H17.686a1.1,1.1,0,0,0,.5-2.076L11.212,1.463a1.745,1.745,0,0,0-1.643,0Z" transform="translate(-2 -1.258)" fill="#3f84e5"/>
</svg>
