<svg id="Iconly_Bold_Calendar" data-name="Iconly/Bold/Calendar" xmlns="http://www.w3.org/2000/svg" width="28" height="31" viewBox="0 0 28 31">
  <g id="Calendar" transform="translate(0 0)">
    <path id="Calendar-2" data-name="Calendar" d="M8.014,31H8a8.031,8.031,0,0,1-5.816-2.141,7.95,7.95,0,0,1-2.164-5.8L0,10.157a7.871,7.871,0,0,1,1.9-5.43A7.7,7.7,0,0,1,7.01,2.372V1.209A1.2,1.2,0,0,1,7.35.352a1.193,1.193,0,0,1,2.023.855V2.292L18.5,2.279V1.194A1.158,1.158,0,0,1,19.677,0a1.163,1.163,0,0,1,1.184,1.191V2.353a7.736,7.736,0,0,1,5.166,2.305,7.724,7.724,0,0,1,1.955,5.4L28,23.12c.006,4.844-3.051,7.858-7.977,7.865Zm12.275-9a1.293,1.293,0,0,0-1.259,1.32A1.29,1.29,0,1,0,20.3,22ZM7.648,22v0a1.321,1.321,0,0,0-1.257,1.334,1.277,1.277,0,0,0,1.261,1.239h.06A1.287,1.287,0,0,0,7.651,22Zm6.328-.008v0a1.327,1.327,0,0,0-1.257,1.335,1.279,1.279,0,0,0,1.266,1.239h.056a1.278,1.278,0,0,0,1.212-1.335,1.262,1.262,0,0,0-1.274-1.237ZM7.641,16.421v0a1.321,1.321,0,0,0-1.257,1.334,1.276,1.276,0,0,0,1.263,1.239h.06a1.256,1.256,0,0,0,.876-.411,1.292,1.292,0,0,0-.939-2.16Zm6.329-.054v0A1.321,1.321,0,0,0,12.712,17.7a1.278,1.278,0,0,0,1.267,1.24h.056a1.281,1.281,0,0,0,1.211-1.335,1.263,1.263,0,0,0-1.273-1.237Zm6.332.01H20.3a1.283,1.283,0,0,0-1.257,1.3v.018a1.263,1.263,0,0,0,1.277,1.237h.029a1.278,1.278,0,0,0-.044-2.556ZM7.013,4.74c-3.088.309-4.652,2.131-4.648,5.414l0,.481L25.62,10.6v-.543c-.066-3.275-1.666-5.071-4.754-5.339V5.916a1.189,1.189,0,0,1-2.028.848,1.2,1.2,0,0,1-.337-.845V4.665l-9.124.013,0,1.253A1.162,1.162,0,0,1,8.2,7.124a1.174,1.174,0,0,1-.847-.346,1.2,1.2,0,0,1-.337-.846V4.74Z" transform="translate(0 0)" fill="#3f84e5"/>
  </g>
</svg>
