<svg width="24" height="24" viewBox="0 0 24 24" fill="none" xmlns="http://www.w3.org/2000/svg">
<path opacity="0.4" d="M4.75 6.75C4.75 4.40614 6.65614 2.5 9 2.5C11.3435 2.5 13.2495 4.40562 13.25 6.74903C13.2405 9.04858 11.4468 10.9052 9.16098 10.99H9.16097H9.16094H9.16091H9.16088H9.16085H9.16082H9.16079H9.16076H9.16073H9.16071H9.16068H9.16065H9.16062H9.16059H9.16056H9.16053H9.1605H9.16047H9.16044H9.16041H9.16038H9.16035H9.16032H9.16029H9.16026H9.16023H9.1602H9.16018H9.16015H9.16012H9.16009H9.16006H9.16003H9.16H9.15997H9.15994H9.15991H9.15988H9.15985H9.15982H9.15979H9.15977H9.15974H9.15971H9.15968H9.15965H9.15962H9.15959H9.15956H9.15953H9.1595H9.15947H9.15944H9.15941H9.15938H9.15935H9.15932H9.15929H9.15927H9.15924H9.15921H9.15918H9.15915H9.15912H9.15909H9.15906H9.15903H9.159H9.15897H9.15894H9.15891H9.15888H9.15885H9.15882H9.15879H9.15876H9.15873H9.1587H9.15867H9.15864H9.15861H9.15858H9.15855H9.15852H9.15849H9.15846H9.15842H9.15839H9.15836H9.15833H9.1583H9.15827H9.15824H9.15821H9.15818H9.15815H9.15812H9.15809H9.15805H9.15802H9.15799H9.15796H9.15793H9.1579H9.15787H9.15784H9.1578H9.15777H9.15774H9.15771H9.15768H9.15764H9.15761H9.15758H9.15755H9.15752H9.15748H9.15745H9.15742H9.15739H9.15735H9.15732H9.15729H9.15725H9.15722H9.15719H9.15716H9.15712H9.15709H9.15706H9.15702H9.15699H9.15695H9.15692H9.15689H9.15685H9.15682H9.15679H9.15675H9.15672H9.15668H9.15665H9.15661H9.15658H9.15654H9.15651H9.15647H9.15644H9.1564H9.15637H9.15633H9.1563H9.15626H9.15623H9.15619H9.15616H9.15612H9.15608H9.15605H9.15601H9.15597H9.15594H9.1559H9.15586H9.15583H9.15579H9.15575H9.15572H9.15568H9.15564H9.1556H9.15557H9.15553H9.15549H9.15545H9.15541H9.15537H9.15534H9.1553H9.15526H9.15522H9.15518H9.15514H9.1551H9.15506H9.15502H9.15498H9.15494H9.1549H9.15486H9.15482H9.15478H9.15474H9.1547H9.15466H9.15462H9.15458H9.15454H9.1545H9.15445H9.15441H9.15437H9.15433H9.15429H9.15424H9.1542H9.15416H9.15412H9.15407H9.15403H9.15399H9.15394H9.1539H9.15386H9.15381H9.15377H9.15373H9.15368H9.15364H9.15359H9.15355H9.1535H9.15346H9.15341H9.15337H9.15332H9.15327H9.15323H9.15318H9.15314H9.15309H9.15304H9.153H9.15295H9.1529H9.15285H9.15281H9.15276H9.15271H9.15266H9.15261H9.15257H9.15252H9.15247H9.15242H9.15237H9.15232H9.15227H9.15222H9.15217H9.15212H9.15207H9.15202H9.15197H9.15192H9.15187H9.15181H9.15176H9.15171H9.15166H9.15161H9.15155H9.1515H9.15145H9.1514H9.15134H9.15129H9.15124H9.15118H9.15113H9.15107H9.15102H9.15096H9.15091H9.15085H9.1508H9.15074H9.15069H9.15063H9.15057H9.15052H9.15046H9.1504H9.15035H9.15029H9.15023H9.15017H9.15012H9.15006H9.15H9.14988H9.14977H9.14965H9.14953H9.14942H9.1493H9.14918H9.14907H9.14895H9.14884H9.14872H9.14861H9.1485H9.14838H9.14827H9.14815H9.14804H9.14793H9.14781H9.1477H9.14759H9.14748H9.14736H9.14725H9.14714H9.14703H9.14692H9.1468H9.14669H9.14658H9.14647H9.14636H9.14625H9.14614H9.14603H9.14592H9.14581H9.1457H9.14559H9.14549H9.14538H9.14527H9.14516H9.14505H9.14494H9.14484H9.14473H9.14462H9.14451H9.14441H9.1443H9.14419H9.14409H9.14398H9.14388H9.14377H9.14366H9.14356H9.14345H9.14335H9.14324H9.14314H9.14303H9.14293H9.14283H9.14272H9.14262H9.14251H9.14241H9.14231H9.1422H9.1421H9.142H9.14189H9.14179H9.14169H9.14159H9.14148H9.14138H9.14128H9.14118H9.14108H9.14098H9.14088H9.14077H9.14067H9.14057H9.14047H9.14037H9.14027H9.14017H9.14007H9.13997H9.13987H9.13977H9.13967H9.13957H9.13947H9.13938H9.13928H9.13918H9.13908H9.13898H9.13888H9.13878H9.13869H9.13859H9.13849H9.13839H9.1383H9.1382H9.1381H9.138H9.13791H9.13781H9.13771H9.13762H9.13752H9.13742H9.13733H9.13723H9.13714H9.13704H9.13694H9.13685H9.13675H9.13666H9.13656H9.13647H9.13637H9.13628H9.13618H9.13609H9.13599H9.1359H9.1358H9.13571H9.13562H9.13552H9.13543H9.13533H9.13524H9.13515H9.13505H9.13496H9.13487H9.13477H9.13468H9.13459H9.13449H9.1344H9.13431H9.13422H9.13412H9.13403H9.13394H9.13385H9.13376C9.04328 10.9796 8.94918 10.9808 8.86253 10.989C6.52538 10.8911 4.75 9.03575 4.75 6.75Z" fill="#61A0F9" stroke="#61A0F9"/>
<path d="M4.19868 20.1749L4.19731 20.174C3.03836 19.4013 2.45996 18.4018 2.45996 17.38C2.45996 16.3579 3.03872 15.3485 4.207 14.5662C5.51356 13.7018 7.25177 13.255 9.01246 13.255C10.7738 13.255 12.5067 13.7021 13.8026 14.566C14.958 15.3363 15.5309 16.3356 15.54 17.3621C15.5392 18.3935 14.9603 19.3928 13.8008 20.1752C12.5 21.0484 10.7627 21.5 8.99996 21.5C7.23701 21.5 5.49957 21.0483 4.19868 20.1749Z" fill="#61A0F9" stroke="#61A0F9"/>
<path opacity="0.4" d="M14.8794 10.3316C15.7503 9.3339 16.2231 7.99402 16.1084 6.56014L16.1084 6.56013L16.1081 6.55696C16.0494 5.87774 15.8577 5.24381 15.5676 4.67466C15.7552 4.62219 15.9525 4.58601 16.1537 4.56809C17.8385 4.42225 19.345 5.67835 19.4917 7.38189C19.6287 9.04728 18.4535 10.4991 16.8289 10.71H16.81C16.8075 10.71 16.8043 10.71 16.8005 10.7099C16.7635 10.7095 16.6676 10.7084 16.5602 10.733C15.9391 10.7554 15.3639 10.6084 14.8794 10.3316Z" fill="#61A0F9" stroke="#61A0F9"/>
<path d="M21.4922 16.5433L21.4921 16.5433L21.4917 16.5489C21.4288 17.3111 20.9419 18.0206 20.0097 18.5315L20.009 18.5319C19.3887 18.8731 18.6467 19.0965 17.8628 19.1948C18.1968 18.6687 18.4011 18.0866 18.4578 17.4763L18.4579 17.4763L18.4584 17.4702C18.5747 16.0274 17.8798 14.688 16.6035 13.6605L16.6036 13.6605L16.6002 13.6579C16.3019 13.4219 15.9843 13.2072 15.6508 13.0134C17.366 12.91 19.1765 13.3811 20.376 14.3491L20.3766 14.3496C21.2041 15.0152 21.5624 15.7941 21.4922 16.5433Z" fill="#61A0F9" stroke="#61A0F9"/>
</svg>
