<svg xmlns="http://www.w3.org/2000/svg" xmlns:xlink="http://www.w3.org/1999/xlink" width="25.429" height="20" viewBox="0 0 25.429 20">
  <defs>
    <linearGradient id="linear-gradient" x1="0.5" x2="0.5" y2="1" gradientUnits="objectBoundingBox">
      <stop offset="0" stop-color="#455b60"/>
      <stop offset="1" stop-color="#0d1b1e"/>
    </linearGradient>
  </defs>
  <path id="Path_27538" data-name="Path 27538" d="M22.393,32H2.036A2.036,2.036,0,0,0,0,34.036v.679H24.429v-.679A2.036,2.036,0,0,0,22.393,32ZM0,48.964A2.036,2.036,0,0,0,2.036,51H22.393a2.036,2.036,0,0,0,2.036-2.036V36.071H0Zm14.929-9.839a.34.34,0,0,1,.339-.339h6.107a.34.34,0,0,1,.339.339V39.8a.34.34,0,0,1-.339.339H15.268a.34.34,0,0,1-.339-.339Zm0,2.714a.34.34,0,0,1,.339-.339h6.107a.34.34,0,0,1,.339.339v.679a.34.34,0,0,1-.339.339H15.268a.34.34,0,0,1-.339-.339Zm0,2.714a.34.34,0,0,1,.339-.339h6.107a.34.34,0,0,1,.339.339v.679a.34.34,0,0,1-.339.339H15.268a.34.34,0,0,1-.339-.339ZM7.464,38.786A2.714,2.714,0,1,1,4.75,41.5,2.717,2.717,0,0,1,7.464,38.786Zm-4.619,8.66a2.718,2.718,0,0,1,2.583-1.875h.348a4.368,4.368,0,0,0,3.376,0H9.5a2.718,2.718,0,0,1,2.583,1.875.668.668,0,0,1-.662.84H3.507A.669.669,0,0,1,2.846,47.446Z" transform="translate(0.5 -31.5)" stroke="rgba(0,0,0,0)" stroke-miterlimit="10" stroke-width="1" fill="url(#linear-gradient)"/>
</svg>
