<svg xmlns="http://www.w3.org/2000/svg" xmlns:xlink="http://www.w3.org/1999/xlink" width="23.429" height="18.445" viewBox="0 0 23.429 18.445">
  <defs>
    <linearGradient id="linear-gradient" x1="0.5" x2="0.5" y2="1" gradientUnits="objectBoundingBox">
      <stop offset="0" stop-color="#455b60"/>
      <stop offset="1" stop-color="#0d1b1e"/>
    </linearGradient>
  </defs>
  <path id="Path_27539" data-name="Path 27539" d="M20.56,32H1.869A1.87,1.87,0,0,0,0,33.869V47.576a1.87,1.87,0,0,0,1.869,1.869H20.56a1.87,1.87,0,0,0,1.869-1.869V33.869A1.87,1.87,0,0,0,20.56,32ZM6.853,35.738A2.492,2.492,0,1,1,4.361,38.23,2.494,2.494,0,0,1,6.853,35.738Zm4.361,9.221a.817.817,0,0,1-.872.748H3.364a.817.817,0,0,1-.872-.748v-.748a2.452,2.452,0,0,1,2.617-2.243H5.3a4.011,4.011,0,0,0,3.1,0H8.6a2.452,2.452,0,0,1,2.617,2.243ZM19.937,42.9a.312.312,0,0,1-.312.312H14.018a.312.312,0,0,1-.312-.312V42.28a.312.312,0,0,1,.312-.312h5.607a.312.312,0,0,1,.312.312Zm0-2.492a.312.312,0,0,1-.312.312H14.018a.312.312,0,0,1-.312-.312v-.623a.312.312,0,0,1,.312-.312h5.607a.312.312,0,0,1,.312.312Zm0-2.492a.312.312,0,0,1-.312.312H14.018a.312.312,0,0,1-.312-.312V37.3a.312.312,0,0,1,.312-.312h5.607a.312.312,0,0,1,.312.312Z" transform="translate(0.5 -31.5)" stroke="rgba(0,0,0,0)" stroke-miterlimit="10" stroke-width="1" fill="url(#linear-gradient)"/>
</svg>
