<svg xmlns="http://www.w3.org/2000/svg" width="19.967" height="22.82" viewBox="0 0 19.967 22.82">
  <path id="Path_27537" data-name="Path 27537" d="M5.777,7.844H7.519a10.057,10.057,0,0,1,.633-3.138A4.272,4.272,0,0,0,5.777,7.844Zm0,1.426a4.273,4.273,0,0,0,2.376,3.138,10.045,10.045,0,0,1-.633-3.138Zm4.207,3.507a6.063,6.063,0,0,0,1.044-3.507H8.939A6.067,6.067,0,0,0,9.984,12.778ZM8.939,7.844h2.089A6.065,6.065,0,0,0,9.984,4.337,6.06,6.06,0,0,0,8.939,7.844Zm2.875,4.564A4.272,4.272,0,0,0,14.19,9.271H12.448A10.045,10.045,0,0,1,11.815,12.409ZM18.541,0H2.852A2.852,2.852,0,0,0,0,2.852V19.968A2.852,2.852,0,0,0,2.852,22.82H18.541a1.426,1.426,0,0,0,1.426-1.426V1.426A1.426,1.426,0,0,0,18.541,0ZM14.976,18.541H4.992a.713.713,0,1,1,0-1.426h9.984a.713.713,0,1,1,0,1.426ZM9.984,14.263a5.705,5.705,0,1,1,5.705-5.705A5.705,5.705,0,0,1,9.984,14.263Zm1.831-9.556a10.045,10.045,0,0,1,.633,3.138H14.19A4.272,4.272,0,0,0,11.815,4.706Z" fill="#3f84e5"/>
</svg>
