<svg xmlns="http://www.w3.org/2000/svg" width="19.005" height="20.001" viewBox="0 0 19.005 20.001">
  <g id="Iconly_Bold_Setting" data-name="Iconly/Bold/Setting" opacity="0.2">
    <g id="Setting" transform="translate(0.001 0)">
      <path id="Setting-2" data-name="Setting" d="M10.184,20H8.816a2.025,2.025,0,0,1-1.421-.59,1.963,1.963,0,0,1-.58-1.4,2.013,2.013,0,0,0-2.03-1.991,1.987,1.987,0,0,0-1.041.292,2.153,2.153,0,0,1-1.55.2,2.09,2.09,0,0,1-1.24-.93L.315,14.45a1.94,1.94,0,0,1-.25-1.56,2.036,2.036,0,0,1,.989-1.25,1.948,1.948,0,0,0,.751-.73,1.974,1.974,0,0,0-.751-2.67A1.958,1.958,0,0,1,.123,7.047,1.927,1.927,0,0,1,.315,5.57l.639-1.12A2.028,2.028,0,0,1,2.2,3.5a2.066,2.066,0,0,1,1.56.211,2.19,2.19,0,0,0,1.021.26,2.081,2.081,0,0,0,1.439-.58,1.964,1.964,0,0,0,.59-1.4A2.018,2.018,0,0,1,8.854,0h1.4a2.012,2.012,0,0,1,1.421.571,1.927,1.927,0,0,1,.6,1.42,2.019,2.019,0,0,0,2.041,1.991,2.123,2.123,0,0,0,1.01-.271,2.073,2.073,0,0,1,.978-.247,2.037,2.037,0,0,1,1.751.987l.681,1.17a2.014,2.014,0,0,1,.269.99,1.971,1.971,0,0,1-1.02,1.72,2.02,2.02,0,0,0-.75.731,1.969,1.969,0,0,0,.75,2.67,1.988,1.988,0,0,1,.751,2.7l-.681,1.13a2.027,2.027,0,0,1-1.75,1,2.005,2.005,0,0,1-1.02-.272,2.209,2.209,0,0,0-1.021-.27,2.047,2.047,0,0,0-1.439.59,1.925,1.925,0,0,0-.6,1.41A2.013,2.013,0,0,1,10.184,20ZM9.528,7.267a2.824,2.824,0,0,0-1.984.8,2.708,2.708,0,0,0-.609,2.991,2.787,2.787,0,0,0,2.589,1.7h.049a2.75,2.75,0,0,0,1.941-.8,2.705,2.705,0,0,0,.831-1.94,2.738,2.738,0,0,0-1.729-2.539A2.851,2.851,0,0,0,9.528,7.267Z" transform="translate(0 0)" fill="#1f4287"/>
    </g>
  </g>
</svg>
