<svg xmlns="http://www.w3.org/2000/svg" width="15" height="15" viewBox="0 0 15 15">
  <defs>
    <linearGradient id="linear-gradient" x1="0.5" x2="0.5" y2="1" gradientUnits="objectBoundingBox">
      <stop offset="0" stop-color="#65a2f9"/>
      <stop offset="1" stop-color="#3f84e5"/>
    </linearGradient>
  </defs>
  <g id="Iconly_Bold_Graph" data-name="Iconly/Bold/Graph" transform="translate(0.5 0.5)">
    <g id="Graph">
      <path id="Graph-2" data-name="Graph" d="M.762,10.86a5.742,5.742,0,0,1-.716-2.2A4.151,4.151,0,0,1,0,7.974a6.086,6.086,0,0,1,4.869-5.9.77.77,0,0,1,.837.417.773.773,0,0,1,.089.18c.1,1.468.2,2.911.292,4.354a1.3,1.3,0,0,0,.07.441.716.716,0,0,0,.7.442l4.659-.3.032.012a.759.759,0,0,1,.529.226.734.734,0,0,1,.212.527,6.07,6.07,0,0,1-4.814,5.487A6.264,6.264,0,0,1,6.156,14,6.169,6.169,0,0,1,.762,10.86Zm6.849-4.5A.616.616,0,0,1,7.405,5.9L7.044.622V.535A.555.555,0,0,1,7.229.147.576.576,0,0,1,7.64,0,6.6,6.6,0,0,1,14,5.523a.209.209,0,0,1,0,.056.55.55,0,0,1-.138.4.569.569,0,0,1-.389.188L8.1,6.525l-.057,0A.641.641,0,0,1,7.611,6.364Z" transform="translate(0)" stroke="rgba(0,0,0,0)" stroke-width="1" fill="url(#linear-gradient)"/>
    </g>
  </g>
</svg>
