<svg xmlns="http://www.w3.org/2000/svg" width="20" height="20" viewBox="0 0 20 20">
  <g id="Iconly_Bold_Graph" data-name="Iconly/Bold/Graph" opacity="0.2">
    <g id="Graph" transform="translate(0 0)">
      <path id="Graph-2" data-name="Graph" d="M1.088,15.514A8.2,8.2,0,0,1,.065,12.378,5.93,5.93,0,0,1,0,11.391,8.694,8.694,0,0,1,6.956,2.959a1.1,1.1,0,0,1,1.2.6,1.1,1.1,0,0,1,.127.257c.136,2.1.281,4.158.417,6.22a1.851,1.851,0,0,0,.1.63,1.023,1.023,0,0,0,1.005.631l6.656-.426.046.017a1.085,1.085,0,0,1,.756.322,1.048,1.048,0,0,1,.3.753A8.671,8.671,0,0,1,10.683,19.8a8.948,8.948,0,0,1-1.889.2A8.813,8.813,0,0,1,1.088,15.514Zm9.784-6.423a.88.88,0,0,1-.293-.658L10.062.889V.765A.793.793,0,0,1,10.327.21.823.823,0,0,1,10.913,0,9.422,9.422,0,0,1,20,7.89a.3.3,0,0,1,0,.08.786.786,0,0,1-.2.575.813.813,0,0,1-.555.269l-7.679.507q-.041,0-.082,0A.915.915,0,0,1,10.872,9.091Z" fill="#1f4287"/>
    </g>
  </g>
</svg>
