<svg xmlns="http://www.w3.org/2000/svg" width="20" height="18" viewBox="0 0 20 18">
  <g id="_2_User" data-name="2 User" opacity="0.2">
    <path id="_2_Friends" data-name="2 Friends" d="M0,14.918c0-2.447,3.386-3.06,7.349-3.06,3.985,0,7.349.634,7.349,3.083S11.313,18,7.349,18C3.364,18,0,17.366,0,14.918Zm16.633.475c.341-3.112-2.366-4.588-3.067-4.927a.053.053,0,0,1-.033-.054.041.041,0,0,1,.037-.028,18.394,18.394,0,0,1,3.748.319,3.193,3.193,0,0,1,2.462,1.468,2.106,2.106,0,0,1,0,1.877c-.532,1.123-2.246,1.485-2.912,1.578l-.03,0A.208.208,0,0,1,16.633,15.393ZM2.487,4.763A4.8,4.8,0,0,1,7.349,0a4.8,4.8,0,0,1,4.863,4.763A4.8,4.8,0,0,1,7.349,9.525,4.8,4.8,0,0,1,2.487,4.763ZM13.719,8.822a4.069,4.069,0,0,1-.56-.052.177.177,0,0,1-.122-.274,6.432,6.432,0,0,0-.1-7.439.11.11,0,0,1-.018-.123.148.148,0,0,1,.095-.056A4.2,4.2,0,0,1,13.834.8a4.045,4.045,0,0,1,3.957,5.076A4.04,4.04,0,0,1,13.83,8.823Z" fill="#1f4287"/>
  </g>
</svg>
