<svg xmlns="http://www.w3.org/2000/svg" width="36.666" height="33" viewBox="0 0 36.666 33">
  <path id="Camera" d="M28.674,33H7.993A8,8,0,0,1,0,25.016V14.137A8,8,0,0,1,7.993,6.153a.363.363,0,0,0,.35-.219l.109-.219L8.6,5.393c.479-1.009,1.02-2.15,1.351-2.811A4.46,4.46,0,0,1,14.007,0h8.634a4.474,4.474,0,0,1,4.071,2.582c.288.577.727,1.5,1.15,2.4l.26.55.185.4a.413.413,0,0,0,.366.219,8,8,0,0,1,7.993,7.984V25.016A8,8,0,0,1,28.674,33ZM18.333,11.738a7.19,7.19,0,0,0-5.115,2.125,7.09,7.09,0,0,0-2.091,5.072,7.194,7.194,0,0,0,7.206,7.2,7.142,7.142,0,0,0,5.079-2.105,7.178,7.178,0,0,0,.018-10.182A7.159,7.159,0,0,0,18.333,11.738ZM28.618,11.3a1.657,1.657,0,1,0,1.67,1.667A1.66,1.66,0,0,0,28.618,11.3ZM18.333,23.385a4.442,4.442,0,0,1-4.455-4.45v-.018A4.284,4.284,0,0,1,15.162,15.8a4.454,4.454,0,1,1,3.171,7.582Z" fill="#93b9ee"/>
</svg>
