<svg id="Group_3917" data-name="Group 3917" xmlns="http://www.w3.org/2000/svg" xmlns:xlink="http://www.w3.org/1999/xlink" width="172" height="162" viewBox="0 0 172 162">
  <defs>
    <linearGradient id="linear-gradient" x1="0.5" x2="0.5" y2="1" gradientUnits="objectBoundingBox">
      <stop offset="0" stop-color="#50e7b4"/>
      <stop offset="1" stop-color="#23d599"/>
    </linearGradient>
  </defs>
  <circle id="Ellipse_529" data-name="Ellipse 529" cx="67" cy="67" r="67" transform="translate(18 26)" fill="url(#linear-gradient)"/>
  <circle id="Ellipse_530" data-name="Ellipse 530" cx="6.5" cy="6.5" r="6.5" transform="translate(159 26)" fill="url(#linear-gradient)"/>
  <ellipse id="Ellipse_531" data-name="Ellipse 531" cx="10.5" cy="10" rx="10.5" ry="10" fill="url(#linear-gradient)"/>
  <ellipse id="Ellipse_532" data-name="Ellipse 532" cx="5" cy="5.5" rx="5" ry="5.5" transform="translate(0 131)" fill="url(#linear-gradient)"/>
  <ellipse id="Ellipse_533" data-name="Ellipse 533" cx="2.5" cy="2" rx="2.5" ry="2" transform="translate(151 158)" fill="url(#linear-gradient)"/>
  <circle id="Ellipse_534" data-name="Ellipse 534" cx="2.5" cy="2.5" r="2.5" transform="translate(120 118)" fill="#fff"/>
  <circle id="Ellipse_535" data-name="Ellipse 535" cx="4" cy="4" r="4" transform="translate(42 72)" fill="#fff"/>
  <circle id="Ellipse_536" data-name="Ellipse 536" cx="1.5" cy="1.5" r="1.5" transform="translate(105 53)" fill="#fff"/>
  <circle id="Ellipse_537" data-name="Ellipse 537" cx="2" cy="2" r="2" transform="translate(60 121)" fill="#fff"/>
  <circle id="Ellipse_538" data-name="Ellipse 538" cx="1" cy="1" r="1" transform="translate(71 41)" fill="#fff"/>
  <path id="Path" d="M45.9,7.965,20.592,33.273a4.7,4.7,0,0,1-6.553,0L1.359,20.646a4.672,4.672,0,0,1,6.607-6.607l9.324,9.324,22-22A4.672,4.672,0,0,1,45.9,7.965" transform="translate(62 75.638)" fill="#fff"/>
</svg>
