<svg id="Add_User" data-name="Add User" xmlns="http://www.w3.org/2000/svg" width="16" height="15.2" viewBox="0 0 16 15.2">
  <path id="Add_User-2" data-name="Add User" d="M0,12.6c0-2.068,2.763-2.585,6-2.585,3.254,0,6,.535,6,2.6S9.236,15.2,6,15.2C2.747,15.2,0,14.664,0,12.6ZM12.88,8.071V7.129h-.961a.729.729,0,0,1,0-1.459h.961V4.729a.719.719,0,1,1,1.439,0V5.67h.962a.729.729,0,0,1,0,1.459h-.962v.942a.719.719,0,1,1-1.439,0ZM2.03,4.021a3.97,3.97,0,1,1,7.94,0,3.97,3.97,0,1,1-7.94,0Z" fill="#fff"/>
</svg>
