<svg id="Iconly_Bold_Arrow_-_Left_Square" data-name="Iconly/Bold/Arrow - Left Square" xmlns="http://www.w3.org/2000/svg" width="20" height="20" viewBox="0 0 20 20">
  <g id="Arrow_-_Left_Square" data-name="Arrow - Left Square" transform="translate(0 0)">
    <path id="Arrow_-_Left_Square-2" data-name="Arrow - Left Square" d="M14.09,20H5.92C2.379,20,0,17.721,0,14.33V5.66C0,2.275,2.379,0,5.92,0h8.17C17.625,0,20,2.275,20,5.66v8.67C20,17.721,17.625,20,14.09,20ZM9.68,5.5a.742.742,0,0,0-.53.218L5.38,9.47a.774.774,0,0,0,0,1.06l3.77,3.75a.754.754,0,0,0,1.059,0,.766.766,0,0,0,0-1.07L7.73,10.75h6.35A.751.751,0,0,0,14.83,10a.742.742,0,0,0-.751-.75H7.73L10.21,6.78a.763.763,0,0,0,.22-.53.787.787,0,0,0-.22-.529A.742.742,0,0,0,9.68,5.5Z" transform="translate(0 0)" fill="#fff"/>
  </g>
</svg>
