<svg xmlns="http://www.w3.org/2000/svg" width="34.159" height="21.512" viewBox="0 0 34.159 21.512">
  <defs>
    <linearGradient id="linear-gradient" x1="1.481" y1="-0.322" x2="0.26" y2="1.15" gradientUnits="objectBoundingBox">
      <stop offset="0" stop-color="#fff"/>
      <stop offset="1" stop-color="#e9edf2"/>
    </linearGradient>
  </defs>
  <g id="Arrow_-_Left_3" data-name="Arrow - Left 3" transform="translate(0.5 0.521)">
    <path id="Arrow_-_Left_3-2" data-name="Arrow - Left 3" d="M16.319,20.324a1.333,1.333,0,0,0,.7-1.169V11.582H31.807a1.336,1.336,0,1,0,0-2.672H17.019V1.336a1.329,1.329,0,0,0-.7-1.169A1.365,1.365,0,0,0,14.945.2L.631,9.114a1.329,1.329,0,0,0,0,2.263l14.313,8.909a1.365,1.365,0,0,0,1.374.037" transform="translate(0 0)" stroke="rgba(0,0,0,0)" stroke-width="1" fill="url(#linear-gradient)"/>
  </g>
</svg>
