<svg id="AU_australia" xmlns="http://www.w3.org/2000/svg" width="20" height="20" viewBox="0 0 20 20">
  <defs>
    <clipPath id="clip-path">
      <ellipse id="vectorMask" cx="9.85" cy="10" rx="9.85" ry="10" fill="none"/>
    </clipPath>
    <clipPath id="clip-path-2">
      <rect id="rectangle" width="11.281" height="11.252" fill="#4758a9"/>
    </clipPath>
  </defs>
  <ellipse id="circle" cx="9.927" cy="9.902" rx="9.927" ry="9.902" transform="translate(0 0.108)" fill="#4758a9"/>
  <g id="Group_1" data-name="Group 1" transform="translate(0.3 0)" clip-path="url(#clip-path)">
    <g id="Group_1-2" data-name="Group 1" transform="translate(-0.751 -0.342)">
      <g id="rectangle-2" data-name="rectangle" transform="translate(0 0)">
        <rect id="rectangle-3" data-name="rectangle" width="11.281" height="11.252" fill="#4758a9"/>
        <g id="Clip" clip-path="url(#clip-path-2)">
          <path id="stroke" d="M658.934,153.969l1.292,1.289-10.965,10.936-1.292-1.289Z" transform="translate(-648.251 -154.307)" fill="#f5f7fa"/>
          <path id="stroke-2" data-name="stroke" d="M649.261,153.969l-1.292,1.289,10.965,10.936,1.292-1.289Z" transform="translate(-648.251 -154.307)" fill="#f5f7fa"/>
          <path id="stroke-3" data-name="stroke" d="M661.676,156.712l.646.644-10.965,10.936-.646-.644Z" transform="translate(-650.671 -156.728)" fill="#ed5565"/>
          <path id="stroke-4" data-name="stroke" d="M651.358,156.712l-.646.644,10.965,10.936.646-.644Z" transform="translate(-650.671 -156.728)" fill="#ed5565"/>
          <rect id="stroke-5" data-name="stroke" width="1.805" height="11.252" transform="translate(4.963)" fill="#f5f7fa"/>
          <rect id="stroke-6" data-name="stroke" width="11.281" height="1.8" transform="translate(0 4.951)" fill="#f5f7fa"/>
          <rect id="stroke-7" data-name="stroke" width="0.902" height="11.252" transform="translate(5.415)" fill="#ed5565"/>
          <rect id="stroke-8" data-name="stroke" width="11.281" height="0.9" transform="translate(0 5.401)" fill="#ed5565"/>
        </g>
      </g>
    </g>
  </g>
  <path id="star" d="M702.495,268.094l.457,1.326a.144.144,0,0,0,.138.094h1.478a.135.135,0,0,1,.085.247l-1.2.815a.132.132,0,0,0-.053.152l.457,1.323a.143.143,0,0,1-.223.152l-1.2-.82a.152.152,0,0,0-.17,0l-1.2.819a.143.143,0,0,1-.223-.152l.457-1.321a.132.132,0,0,0-.053-.152l-1.2-.815a.135.135,0,0,1,.085-.247h1.478a.144.144,0,0,0,.137-.094l.457-1.326A.147.147,0,0,1,702.495,268.094Z" transform="translate(-694.606 -255.284)" fill="#fff"/>
  <path id="star-2" data-name="star" d="M776,214.025l.366,1.033a.115.115,0,0,0,.11.073h1.183a.105.105,0,0,1,.068.192l-.956.635a.1.1,0,0,0-.042.119l.365,1.031a.113.113,0,0,1-.178.119l-.957-.639a.124.124,0,0,0-.136,0l-.957.638a.113.113,0,0,1-.178-.119l.365-1.029a.1.1,0,0,0-.042-.119l-.956-.635a.105.105,0,0,1,.068-.192H775.3a.115.115,0,0,0,.11-.073l.366-1.033A.119.119,0,0,1,776,214.025Z" transform="translate(-759.89 -207.585)" fill="#fff"/>
</svg>
