<svg xmlns="http://www.w3.org/2000/svg" width="22" height="17.286" viewBox="0 0 22 17.286">
  <defs>
    <linearGradient id="linear-gradient" x1="0.5" x2="0.5" y2="1" gradientUnits="objectBoundingBox">
      <stop offset="0" stop-color="#455b60"/>
      <stop offset="1" stop-color="#0d1b1e"/>
    </linearGradient>
  </defs>
  <g id="Group_3801" data-name="Group 3801" transform="translate(-32 -80)">
    <path id="Path_27415" data-name="Path 27415" d="M32,229.563a2.75,2.75,0,0,0,2.75,2.75h16.5a2.75,2.75,0,0,0,2.75-2.75V222H32Zm3.241-3.732a1.473,1.473,0,0,1,1.473-1.473h2.357a1.473,1.473,0,0,1,1.473,1.473v.982a1.473,1.473,0,0,1-1.473,1.473H36.714a1.473,1.473,0,0,1-1.473-1.473Z" transform="translate(0 -135.027)" fill="url(#linear-gradient)"/>
    <path id="Path_27416" data-name="Path 27416" d="M51.25,80H34.75A2.75,2.75,0,0,0,32,82.75v1.277H54V82.75A2.75,2.75,0,0,0,51.25,80Z" fill="url(#linear-gradient)"/>
  </g>
</svg>
