<svg width="24" height="24" viewBox="0 0 24 24" fill="none" xmlns="http://www.w3.org/2000/svg">
<path d="M12 22C17.5228 22 22 17.5228 22 12C22 6.47715 17.5228 2 12 2C6.47715 2 2 6.47715 2 12C2 17.5228 6.47715 22 12 22Z" fill="#61A0F9"/>
<path d="M15.6074 15.404L15.597 15.3971L15.5862 15.3907L12.4864 13.5408C12.4864 13.5407 12.4863 13.5407 12.4862 13.5407C11.8677 13.171 11.39 12.3244 11.39 11.61V7.51001C11.39 7.37615 11.5062 7.26001 11.64 7.26001C11.7739 7.26001 11.89 7.37615 11.89 7.51001V11.61C11.89 11.9084 12.0065 12.2178 12.1441 12.4597C12.2809 12.7001 12.4869 12.9592 12.746 13.1107L15.8438 14.9594L15.8438 14.9594L15.8481 14.9619C15.9565 15.0251 16.0041 15.1703 15.9318 15.3015C15.8728 15.3913 15.7851 15.43 15.71 15.43C15.6835 15.43 15.6636 15.427 15.6486 15.4228C15.6343 15.4189 15.6211 15.4131 15.6074 15.404Z" fill="#61A0F9" stroke="white"/>
</svg>
