<svg xmlns="http://www.w3.org/2000/svg" width="16.569" height="19.33" viewBox="0 0 16.569 19.33">
  <defs>
    <linearGradient id="linear-gradient" x1="0.5" x2="0.5" y2="1" gradientUnits="objectBoundingBox">
      <stop offset="0" stop-color="#455b60"/>
      <stop offset="1" stop-color="#0d1b1e"/>
    </linearGradient>
  </defs>
  <path id="Path_27400" data-name="Path 27400" d="M4.071,2.381h.808A2.071,2.071,0,0,1,6.833,1h4.142a2.071,2.071,0,0,1,1.954,1.381h.808a2.071,2.071,0,0,1,2.071,2.071V6.523H14.426V4.452a.69.69,0,0,0-.69-.69h-.808a2.071,2.071,0,0,1-1.954,1.381H6.832A2.071,2.071,0,0,1,4.879,3.761H4.071a.69.69,0,0,0-.69.69V18.259a.69.69,0,0,0,.69.69H7.677V20.33H4.071A2.071,2.071,0,0,1,2,18.259V4.452A2.071,2.071,0,0,1,4.071,2.381Zm2.761,0a.69.69,0,0,0,0,1.381h4.142a.69.69,0,1,0,0-1.381ZM10.975,7.9A2.071,2.071,0,0,0,8.9,9.975v8.284a2.071,2.071,0,0,0,2.071,2.071H16.5a2.071,2.071,0,0,0,2.071-2.071V9.975A2.071,2.071,0,0,0,16.5,7.9Z" transform="translate(-2 -1)" fill="url(#linear-gradient)"/>
</svg>
