<svg xmlns="http://www.w3.org/2000/svg" width="34.548" height="33.868" viewBox="0 0 34.548 33.868">
  <g id="Send" transform="translate(0.556)">
    <path id="Fill_1" data-name="Fill 1" d="M33.032.986A3.29,3.29,0,0,0,29.751.133L2.393,8.058A3.259,3.259,0,0,0,.042,10.634a3.814,3.814,0,0,0,1.7,3.563L10.3,19.433a2.22,2.22,0,0,0,2.736-.326l9.8-9.82a1.248,1.248,0,0,1,1.8,0,1.288,1.288,0,0,1,0,1.807l-9.812,9.82a2.238,2.238,0,0,0-.328,2.743l5.227,8.608a3.4,3.4,0,0,0,3.248,1.584A3.307,3.307,0,0,0,25.738,31.5l8.11-27.221a3.318,3.318,0,0,0-.816-3.29" transform="translate(0 0)" fill="#fff"/>
    <path id="Combined_Shape" data-name="Combined Shape" d="M8.1,13a1.281,1.281,0,0,1,0-1.807l2.321-2.329a1.277,1.277,0,0,1,1.8,1.809L9.9,13a1.272,1.272,0,0,1-1.8,0ZM6.768,6.542a1.281,1.281,0,0,1,0-1.807L9.089,2.406a1.277,1.277,0,1,1,1.8,1.809L8.571,6.542a1.272,1.272,0,0,1-1.8,0ZM.373,4.509a1.281,1.281,0,0,1,0-1.807L2.694.373A1.277,1.277,0,0,1,4.5,2.182L2.176,4.509a1.272,1.272,0,0,1-1.8,0Z" transform="translate(12.042 33.732) rotate(180)" fill="#fff"/>
  </g>
</svg>
