<svg xmlns="http://www.w3.org/2000/svg" width="19.5" height="20.99" viewBox="0 0 19.5 20.99">
  <g id="Iconly_Bold_Calendar" data-name="Iconly/Bold/Calendar" transform="translate(0.5 0.5)">
    <path id="Subtraction_1" data-name="Subtraction 1" d="M1598.152-435.1h-.011a5.15,5.15,0,0,1-3.739-1.382,5.136,5.136,0,0,1-1.391-3.739l-.011-8.327a5.091,5.091,0,0,1,1.219-3.5,4.939,4.939,0,0,1,3.288-1.519v-.75a.774.774,0,0,1,.22-.553.751.751,0,0,1,.539-.217.749.749,0,0,1,.761.769v.7l4.4-.006a5.463,5.463,0,0,0-.394,1.54l-4,.006,0,.808a.748.748,0,0,1-.76.77.752.752,0,0,1-.544-.223.772.772,0,0,1-.217-.545v-.77c-1.985.2-2.991,1.375-2.988,3.493l0,.31,9.543-.013A5.524,5.524,0,0,0,1608.5-446a5.442,5.442,0,0,0,2.492-.6l.008,6.416c0,3.125-1.961,5.07-5.128,5.074Zm7.891-5.808a.833.833,0,0,0-.809.851.851.851,0,0,0,.822.849.845.845,0,0,0,.837-.851.845.845,0,0,0-.84-.849Zm-8.126,0h0a.85.85,0,0,0-.808.86.822.822,0,0,0,.811.8h.039a.811.811,0,0,0,.564-.266.82.82,0,0,0,.215-.595.813.813,0,0,0-.819-.8Zm4.068-.005h0a.854.854,0,0,0-.808.861.823.823,0,0,0,.814.8h.036a.824.824,0,0,0,.779-.861.813.813,0,0,0-.819-.8Zm-4.073-3.593h0a.85.85,0,0,0-.808.86.821.821,0,0,0,.812.8h.039a.81.81,0,0,0,.563-.266.819.819,0,0,0,.214-.595.812.812,0,0,0-.818-.8Zm4.069-.035h0a.851.851,0,0,0-.809.86.823.823,0,0,0,.815.8h.036a.824.824,0,0,0,.778-.861.813.813,0,0,0-.818-.8Zm4.067.006h0a.826.826,0,0,0-.808.839v.012a.814.814,0,0,0,.821.8h.019a.824.824,0,0,0,.789-.851.825.825,0,0,0-.817-.8Z" transform="translate(-1593 455.086)" fill="#fff" stroke="rgba(0,0,0,0)" stroke-miterlimit="10" stroke-width="1"/>
    <path id="Fill_1" data-name="Fill 1" d="M5.1,2.088H3.9V.912a.9.9,0,1,0-1.8,0V2.088H.9a.912.912,0,0,0,0,1.823H2.1V5.088a.9.9,0,1,0,1.8,0V3.911H5.1a.912.912,0,0,0,0-1.823" transform="translate(13 0.586)" fill="#fff"/>
  </g>
</svg>
