<svg id="Iconly_Bold_Download" data-name="Iconly/Bold/Download" xmlns="http://www.w3.org/2000/svg" width="17.895" height="17" viewBox="0 0 17.895 17">
  <g id="Download">
    <path id="Download-2" data-name="Download" d="M8.259,4.286V.7A.688.688,0,0,1,9.63.605L9.636.7V4.286h4.277A4.051,4.051,0,0,1,17.89,8.205l0,.193v4.509A4.053,4.053,0,0,1,14.108,17l-.186,0H3.973A4.036,4.036,0,0,1,0,13.082l0-.194v-4.5a4.055,4.055,0,0,1,3.778-4.1l.186,0H8.258v5.728L6.827,8.537a.676.676,0,0,0-.975,0,.747.747,0,0,0-.072.919l.072.088,2.6,2.7a.668.668,0,0,0,.908.064l.067-.064,2.6-2.7a.73.73,0,0,0,0-1.007.675.675,0,0,0-.9-.069l-.077.069L9.636,10.015V4.287Z" fill="#3f84e5"/>
  </g>
</svg>
